<svg style="position: absolute; width: 0; height: 0;" width="0" height="0" version="1.1" xmlns="http://www.w3.org/2000/svg" xmlns:xlink="http://www.w3.org/1999/xlink"><defs><symbol id=".null" viewBox="0 -232 1000 1000"><path d=""></path></symbol><symbol id="nonmarkingreturn" viewBox="0 -232 1000 1000"><path d=""></path></symbol><symbol id="space" viewBox="0 -232 1000 1000"><path d=""></path></symbol><symbol id="exclam" viewBox="0 -232 1000 1000"><path d="M94 613 l0 47 l0 46 l47 0 l47 0 l0 -46 l0 -47 l-47 0 l-47 0 ZM94 -12 l0 218 l0 219 l15 0 l16 0 l0 47 l0 47 l16 0 l15 0 l0 -47 l0 -47 l16 0 l16 0 l0 -219 l0 -218 l-47 0 l-47 0 Z"></path></symbol><symbol id="quotedbl" viewBox="0 -232 1000 1000"><path d="M219 456 l0 78 l0 78 l15 0 l16 0 l0 47 l0 47 l16 0 l15 0 l0 -47 l0 -47 l16 0 l15 0 l0 -78 l0 -78 l-46 0 l-47 0 ZM31 456 l0 78 l0 78 l16 0 l15 0 l0 47 l0 47 l16 0 l16 0 l0 -47 l0 -47 l15 0 l16 0 l0 -78 l0 -78 l-47 0 l-47 0 Z"></path></symbol><symbol id="numbersign" viewBox="0 -232 1000 1000"><path d="M219 -12 l0 62 l0 63 l-16 0 l-15 0 l0 31 l0 31 l-63 0 l-63 0 l0 31 l0 32 l63 0 l63 0 l0 15 l0 16 l-16 0 l-16 0 l0 63 l0 62 l-15 0 l-16 0 l0 31 l0 31 l-47 0 l-47 0 l0 32 l0 31 l47 0 l47 0 l0 16 l0 15 l-16 0 l-15 0 l0 78 l0 78 l31 0 l31 0 l0 -62 l0 -62 l16 0 l16 0 l0 -32 l0 -31 l62 0 l62 0 l0 16 l0 15 l-15 0 l-16 0 l0 78 l0 78 l31 0 l32 0 l0 -62 l0 -62 l15 0 l16 0 l0 -32 l0 -31 l63 0 l62 0 l0 -31 l0 -32 l-62 0 l-63 0 l0 -15 l0 -16 l16 0 l15 0 l0 -62 l0 -63 l16 0 l16 0 l0 -31 l0 -31 l46 0 l47 0 l0 -32 l0 -31 l-47 0 l-46 0 l0 -15 l0 -16 l15 0 l16 0 l0 -78 l0 -78 l-31 0 l-32 0 l0 62 l0 63 l-15 0 l-16 0 l0 31 l0 31 l-63 0 l-62 0 l0 -15 l0 -16 l16 0 l15 0 l0 -78 l0 -78 l-31 0 l-31 0 ZM375 238 l0 15 l0 16 l-16 0 l-15 0 l0 63 l0 62 l-16 0 l-16 0 l0 31 l0 31 l-62 0 l-62 0 l0 -15 l0 -16 l15 0 l16 0 l0 -62 l0 -63 l15 0 l16 0 l0 -31 l0 -31 l62 0 l63 0 Z"></path></symbol><symbol id="dollar" viewBox="0 -232 1000 1000"><path d="M250 -106 l0 31 l0 32 l-31 0 l-31 0 l0 15 l0 16 l-32 0 l-31 0 l0 16 l0 15 l-16 0 l-15 0 l0 32 l0 31 l-16 0 l-16 0 l0 47 l0 46 l16 0 l16 0 l0 32 l0 31 l15 0 l16 0 l0 16 l0 15 l16 0 l15 0 l0 16 l0 16 l32 0 l31 0 l0 15 l0 16 l15 0 l16 0 l0 140 l0 141 l-31 0 l-31 0 l0 -16 l0 -15 l-16 0 l-16 0 l0 -16 l0 -15 l-15 0 l-16 0 l0 -47 l0 -47 l-47 0 l-47 0 l0 47 l0 47 l16 0 l15 0 l0 31 l0 31 l16 0 l16 0 l0 16 l0 15 l31 0 l31 0 l0 16 l0 15 l47 0 l47 0 l0 47 l0 47 l31 0 l31 0 l0 -47 l0 -47 l47 0 l47 0 l0 -15 l0 -16 l32 0 l31 0 l0 -15 l0 -16 l15 0 l16 0 l0 -31 l0 -31 l16 0 l15 0 l0 -63 l0 -63 l-15 0 l-16 0 l0 -31 l0 -31 l-16 0 l-15 0 l0 -16 l0 -15 l-16 0 l-15 0 l0 -16 l0 -15 l-32 0 l-31 0 l0 -16 l0 -16 l-31 0 l-32 0 l0 -125 l0 -125 l16 0 l16 0 l0 16 l0 16 l15 0 l16 0 l0 15 l0 16 l16 0 l15 0 l0 31 l0 31 l47 0 l47 0 l0 -31 l0 -31 l-16 0 l-15 0 l0 -31 l0 -32 l-16 0 l-15 0 l0 -15 l0 -16 l-32 0 l-31 0 l0 -16 l0 -15 l-31 0 l-32 0 l0 -32 l0 -31 l-31 0 l-31 0 ZM250 19 l0 110 l0 109 l-16 0 l-15 0 l0 -16 l0 -15 l-16 0 l-15 0 l0 -16 l0 -16 l-16 0 l-16 0 l0 -46 l0 -47 l16 0 l16 0 l0 -16 l0 -15 l15 0 l16 0 l0 -16 l0 -16 l15 0 l16 0 ZM375 363 l0 16 l0 15 l16 0 l15 0 l0 16 l0 15 l16 0 l16 0 l0 63 l0 63 l-16 0 l-16 0 l0 15 l0 16 l-15 0 l-16 0 l0 15 l0 16 l-31 0 l-32 0 l0 -125 l0 -125 l32 0 l31 0 Z"></path></symbol><symbol id="percent" viewBox="0 -232 1000 1000"><path d="M594 394 l0 16 l0 15 l-32 0 l-31 0 l0 31 l0 32 l-15 0 l-16 0 l0 62 l0 63 l16 0 l15 0 l0 31 l0 31 l31 0 l32 0 l0 16 l0 15 l62 0 l63 0 l0 -15 l0 -16 l31 0 l31 0 l0 -31 l0 -31 l16 0 l15 0 l0 -63 l0 -62 l-15 0 l-16 0 l0 -32 l0 -31 l-31 0 l-31 0 l0 -15 l0 -16 l-63 0 l-62 0 ZM719 456 l0 16 l0 16 l15 0 l16 0 l0 62 l0 63 l-16 0 l-15 0 l0 15 l0 16 l-63 0 l-62 0 l0 -16 l0 -15 l-16 0 l-16 0 l0 -63 l0 -62 l16 0 l16 0 l0 -16 l0 -16 l62 0 l63 0 ZM562 -12 l0 31 l0 31 l-15 0 l-16 0 l0 32 l0 31 l-15 0 l-16 0 l0 31 l0 31 l-16 0 l-15 0 l0 31 l0 32 l-16 0 l-15 0 l0 31 l0 31 l-16 0 l-16 0 l0 32 l0 31 l-15 0 l-16 0 l0 31 l0 31 l-16 0 l-15 0 l0 31 l0 32 l-16 0 l-16 0 l0 31 l0 31 l-15 0 l-16 0 l0 32 l0 31 l-15 0 l-16 0 l0 31 l0 31 l-16 0 l-15 0 l0 16 l0 15 l47 0 l46 0 l0 -31 l0 -31 l16 0 l16 0 l0 -31 l0 -31 l15 0 l16 0 l0 -32 l0 -31 l16 0 l15 0 l0 -31 l0 -32 l16 0 l16 0 l0 -31 l0 -31 l15 0 l16 0 l0 -31 l0 -31 l15 0 l16 0 l0 -32 l0 -31 l16 0 l15 0 l0 -31 l0 -32 l16 0 l15 0 l0 -31 l0 -31 l16 0 l16 0 l0 -31 l0 -31 l15 0 l16 0 l0 -32 l0 -31 l16 0 l15 0 l0 -16 l0 -15 l-47 0 l-47 0 ZM156 -12 l0 15 l0 16 l-31 0 l-31 0 l0 31 l0 32 l-16 0 l-16 0 l0 62 l0 62 l16 0 l16 0 l0 32 l0 31 l31 0 l31 0 l0 16 l0 15 l63 0 l62 0 l0 -15 l0 -16 l31 0 l32 0 l0 -31 l0 -32 l15 0 l16 0 l0 -62 l0 -62 l-16 0 l-15 0 l0 -32 l0 -31 l-32 0 l-31 0 l0 -16 l0 -15 l-62 0 l-63 0 ZM281 50 l0 16 l0 16 l16 0 l15 0 l0 62 l0 62 l-15 0 l-16 0 l0 16 l0 16 l-62 0 l-63 0 l0 -16 l0 -16 l-15 0 l-16 0 l0 -62 l0 -62 l16 0 l15 0 l0 -16 l0 -16 l63 0 l62 0 Z"></path></symbol><symbol id="ampersand" viewBox="0 -232 1000 1000"><path d="M250 -12 l0 15 l0 16 l-31 0 l-31 0 l0 16 l0 15 l-16 0 l-16 0 l0 32 l0 31 l-15 0 l-16 0 l0 47 l0 46 l16 0 l15 0 l0 32 l0 31 l16 0 l16 0 l0 16 l0 15 l-16 0 l-16 0 l0 16 l0 16 l-15 0 l-16 0 l0 15 l0 16 l-16 0 l-15 0 l0 31 l0 31 l-16 0 l-16 0 l0 78 l0 79 l16 0 l16 0 l0 31 l0 31 l15 0 l16 0 l0 16 l0 15 l31 0 l32 0 l0 16 l0 15 l93 0 l94 0 l0 -15 l0 -16 l31 0 l32 0 l0 -15 l0 -16 l15 0 l16 0 l0 -16 l0 -15 l15 0 l16 0 l0 15 l0 16 l16 0 l15 0 l0 16 l0 15 l16 0 l15 0 l0 16 l0 15 l63 0 l63 0 l0 -15 l0 -16 l-16 0 l-16 0 l0 -15 l0 -16 l-15 0 l-16 0 l0 -16 l0 -15 l-16 0 l-15 0 l0 -16 l0 -15 l-16 0 l-16 0 l0 -16 l0 -16 l-15 0 l-16 0 l0 -31 l0 -31 l16 0 l15 0 l0 -32 l0 -31 l16 0 l16 0 l0 -31 l0 -31 l-47 0 l-47 0 l0 31 l0 31 l-31 0 l-31 0 l0 -15 l0 -16 l-16 0 l-16 0 l0 -16 l0 -15 l-15 0 l-16 0 l0 -16 l0 -15 l-16 0 l-15 0 l0 -16 l0 -16 l15 0 l16 0 l0 -15 l0 -16 l16 0 l15 0 l0 -31 l0 -32 l16 0 l16 0 l0 -46 l0 -47 l-16 0 l-16 0 l0 -31 l0 -32 l-15 0 l-16 0 l0 -15 l0 -16 l-31 0 l-32 0 l0 -16 l0 -15 l-31 0 l-31 0 ZM312 82 l0 15 l0 16 l16 0 l16 0 l0 47 l0 46 l-16 0 l-16 0 l0 16 l0 16 l-31 0 l-31 0 l0 -16 l0 -16 l-16 0 l-15 0 l0 -46 l0 -47 l15 0 l16 0 l0 -16 l0 -15 l31 0 l31 0 ZM281 363 l0 15 l0 16 l16 0 l15 0 l0 16 l0 15 l16 0 l16 0 l0 16 l0 15 l15 0 l16 0 l0 16 l0 16 l16 0 l15 0 l0 15 l0 16 l16 0 l16 0 l0 16 l0 15 l-16 0 l-16 0 l0 16 l0 16 l-15 0 l-16 0 l0 15 l0 16 l-78 0 l-78 0 l0 -16 l0 -15 l-16 0 l-15 0 l0 -16 l0 -16 l-16 0 l-16 0 l0 -47 l0 -47 l16 0 l16 0 l0 -31 l0 -31 l15 0 l16 0 l0 -16 l0 -15 l31 0 l31 0 Z"></path></symbol><symbol id="quotesingle" viewBox="0 -232 1000 1000"><path d="M62 456 l0 78 l0 78 l16 0 l16 0 l0 47 l0 47 l15 0 l16 0 l0 -47 l0 -47 l16 0 l15 0 l0 -78 l0 -78 l-47 0 l-47 0 Z"></path></symbol><symbol id="parenleft" viewBox="0 -232 1000 1000"><path d="M250 -231 l0 15 l0 16 l-16 0 l-15 0 l0 16 l0 15 l-16 0 l-15 0 l0 16 l0 16 l-16 0 l-16 0 l0 31 l0 31 l-15 0 l-16 0 l0 47 l0 47 l-16 0 l-15 0 l0 218 l0 219 l15 0 l16 0 l0 47 l0 47 l16 0 l15 0 l0 31 l0 32 l16 0 l16 0 l0 15 l0 16 l15 0 l16 0 l0 15 l0 16 l15 0 l16 0 l0 16 l0 15 l31 0 l31 0 l0 -31 l0 -31 l-15 0 l-16 0 l0 -16 l0 -15 l-15 0 l-16 0 l0 -32 l0 -31 l-16 0 l-15 0 l0 -47 l0 -47 l-16 0 l-15 0 l0 -219 l0 -218 l15 0 l16 0 l0 -47 l0 -47 l15 0 l16 0 l0 -31 l0 -31 l16 0 l15 0 l0 -16 l0 -16 l16 0 l15 0 l0 -31 l0 -31 l-31 0 l-31 0 Z"></path></symbol><symbol id="parenright" viewBox="0 -232 1000 1000"><path d="M31 -231 l0 31 l0 31 l16 0 l15 0 l0 16 l0 16 l16 0 l16 0 l0 31 l0 31 l15 0 l16 0 l0 47 l0 47 l16 0 l15 0 l0 218 l0 219 l-15 0 l-16 0 l0 47 l0 47 l-16 0 l-15 0 l0 31 l0 32 l-16 0 l-16 0 l0 15 l0 16 l-15 0 l-16 0 l0 31 l0 31 l31 0 l32 0 l0 -15 l0 -16 l15 0 l16 0 l0 -16 l0 -15 l16 0 l15 0 l0 -16 l0 -15 l16 0 l16 0 l0 -32 l0 -31 l15 0 l16 0 l0 -47 l0 -47 l15 0 l16 0 l0 -219 l0 -218 l-16 0 l-15 0 l0 -47 l0 -47 l-16 0 l-15 0 l0 -31 l0 -31 l-16 0 l-16 0 l0 -16 l0 -16 l-15 0 l-16 0 l0 -15 l0 -16 l-16 0 l-15 0 l0 -16 l0 -15 l-32 0 l-31 0 Z"></path></symbol><symbol id="password_bullet" viewBox="0 -232 1000 1000"><path d="M156 425 l0 47 l0 47 l-15 0 l-16 0 l0 -16 l0 -16 l-31 0 l-32 0 l0 16 l0 16 l-15 0 l-16 0 l0 15 l0 16 l31 0 l32 0 l0 15 l0 16 l15 0 l16 0 l0 16 l0 15 l-16 0 l-15 0 l0 16 l0 15 l-16 0 l-16 0 l0 16 l0 16 l16 0 l16 0 l0 15 l0 16 l15 0 l16 0 l0 -16 l0 -15 l16 0 l15 0 l0 -16 l0 -16 l32 0 l31 0 l0 16 l0 16 l15 0 l16 0 l0 15 l0 16 l16 0 l15 0 l0 -16 l0 -15 l16 0 l15 0 l0 -16 l0 -16 l-15 0 l-16 0 l0 -15 l0 -16 l-15 0 l-16 0 l0 -15 l0 -16 l16 0 l15 0 l0 -16 l0 -15 l31 0 l32 0 l0 -16 l0 -15 l-16 0 l-16 0 l0 -16 l0 -16 l-31 0 l-31 0 l0 16 l0 16 l-16 0 l-15 0 l0 -47 l0 -47 l-31 0 l-32 0 Z"></path></symbol><symbol id="asterisk" viewBox="0 -232 1000 1000"><path d="M156 425 l0 47 l0 47 l-15 0 l-16 0 l0 -16 l0 -16 l-31 0 l-32 0 l0 16 l0 16 l-15 0 l-16 0 l0 15 l0 16 l31 0 l32 0 l0 15 l0 16 l15 0 l16 0 l0 16 l0 15 l-16 0 l-15 0 l0 16 l0 15 l-16 0 l-16 0 l0 16 l0 16 l16 0 l16 0 l0 15 l0 16 l15 0 l16 0 l0 -16 l0 -15 l16 0 l15 0 l0 -16 l0 -16 l32 0 l31 0 l0 16 l0 16 l15 0 l16 0 l0 15 l0 16 l16 0 l15 0 l0 -16 l0 -15 l16 0 l15 0 l0 -16 l0 -16 l-15 0 l-16 0 l0 -15 l0 -16 l-15 0 l-16 0 l0 -15 l0 -16 l16 0 l15 0 l0 -16 l0 -15 l31 0 l32 0 l0 -16 l0 -15 l-16 0 l-16 0 l0 -16 l0 -16 l-31 0 l-31 0 l0 16 l0 16 l-16 0 l-15 0 l0 -47 l0 -47 l-31 0 l-32 0 Z"></path></symbol><symbol id="plus" viewBox="0 -232 1000 1000"><path d="M250 50 l0 125 l0 125 l-109 0 l-110 0 l0 47 l0 47 l110 0 l109 0 l0 125 l0 125 l47 0 l47 0 l0 -125 l0 -125 l109 0 l109 0 l0 -47 l0 -47 l-109 0 l-109 0 l0 -125 l0 -125 l-47 0 l-47 0 Z"></path></symbol><symbol id="comma" viewBox="0 -232 1000 1000"><path d="M94 -106 l0 47 l0 46 l31 0 l31 0 l0 16 l0 16 l-15 0 l-16 0 l0 15 l0 16 l-16 0 l-15 0 l0 16 l0 15 l15 0 l16 0 l0 -15 l0 -16 l16 0 l15 0 l0 -16 l0 -15 l16 0 l16 0 l0 -63 l0 -62 l-47 0 l-47 0 Z"></path></symbol><symbol id="hyphen" viewBox="0 -232 1000 1000"><path d="M31 175 l0 32 l0 31 l125 0 l125 0 l0 -31 l0 -32 l-125 0 l-125 0 Z"></path></symbol><symbol id="period" viewBox="0 -232 1000 1000"><path d="M94 -12 l0 47 l0 46 l47 0 l47 0 l0 -46 l0 -47 l-47 0 l-47 0 Z"></path></symbol><symbol id="slash" viewBox="0 -232 1000 1000"><path d="M188 -12 l0 47 l0 47 l-16 0 l-16 0 l0 46 l0 47 l-15 0 l-16 0 l0 47 l0 47 l-16 0 l-15 0 l0 63 l0 62 l-16 0 l-16 0 l0 47 l0 47 l-15 0 l-16 0 l0 62 l0 63 l-15 0 l-16 0 l0 47 l0 46 l47 0 l47 0 l0 -46 l0 -47 l15 0 l16 0 l0 -63 l0 -62 l16 0 l15 0 l0 -47 l0 -47 l16 0 l16 0 l0 -62 l0 -63 l15 0 l16 0 l0 -47 l0 -47 l15 0 l16 0 l0 -47 l0 -46 l16 0 l15 0 l0 -47 l0 -47 l-47 0 l-46 0 Z"></path></symbol><symbol id="zero" viewBox="0 -232 1000 1000"><path d="M219 -12 l0 15 l0 16 l-31 0 l-32 0 l0 16 l0 15 l-15 0 l-16 0 l0 16 l0 16 l-16 0 l-15 0 l0 31 l0 31 l-16 0 l-16 0 l0 203 l0 203 l16 0 l16 0 l0 32 l0 31 l15 0 l16 0 l0 15 l0 16 l16 0 l15 0 l0 16 l0 15 l32 0 l31 0 l0 16 l0 15 l62 0 l63 0 l0 -15 l0 -16 l31 0 l31 0 l0 -15 l0 -16 l16 0 l16 0 l0 -16 l0 -15 l15 0 l16 0 l0 -31 l0 -32 l15 0 l16 0 l0 -203 l0 -203 l-16 0 l-15 0 l0 -31 l0 -31 l-16 0 l-15 0 l0 -16 l0 -16 l-16 0 l-16 0 l0 -15 l0 -16 l-31 0 l-31 0 l0 -16 l0 -15 l-63 0 l-62 0 ZM344 82 l0 15 l0 16 l15 0 l16 0 l0 31 l0 31 l16 0 l15 0 l0 172 l0 172 l-15 0 l-16 0 l0 31 l0 32 l-16 0 l-15 0 l0 15 l0 16 l-63 0 l-62 0 l0 -16 l0 -15 l-16 0 l-15 0 l0 -32 l0 -31 l-16 0 l-16 0 l0 -172 l0 -172 l16 0 l16 0 l0 -31 l0 -31 l15 0 l16 0 l0 -16 l0 -15 l62 0 l63 0 Z"></path></symbol><symbol id="one" viewBox="0 -232 1000 1000"><path d="M250 -12 l0 31 l0 31 l-16 0 l-15 0 l0 16 l0 16 l-16 0 l-15 0 l0 15 l0 16 l-32 0 l-31 0 l0 47 l0 46 l47 0 l47 0 l0 250 l0 250 l47 0 l46 0 l0 -359 l0 -359 l-31 0 l-31 0 Z"></path></symbol><symbol id="two" viewBox="0 -232 1000 1000"><path d="M219 -12 l0 15 l0 16 l-31 0 l-32 0 l0 16 l0 15 l-15 0 l-16 0 l0 16 l0 16 l-16 0 l-15 0 l0 31 l0 31 l-16 0 l-16 0 l0 31 l0 31 l47 0 l47 0 l0 -31 l0 -31 l16 0 l16 0 l0 -16 l0 -15 l15 0 l16 0 l0 -16 l0 -15 l62 0 l63 0 l0 15 l0 16 l15 0 l16 0 l0 15 l0 16 l16 0 l15 0 l0 62 l0 63 l-15 0 l-16 0 l0 16 l0 15 l-16 0 l-15 0 l0 16 l0 16 l-32 0 l-31 0 l0 15 l0 16 l-31 0 l-31 0 l0 15 l0 16 l-16 0 l-15 0 l0 16 l0 15 l-16 0 l-16 0 l0 16 l0 15 l-15 0 l-16 0 l0 16 l0 16 l-16 0 l-15 0 l0 31 l0 31 l-16 0 l-16 0 l0 32 l0 31 l-15 0 l-16 0 l0 47 l0 46 l250 0 l250 0 l0 -46 l0 -47 l-187 0 l-188 0 l0 -31 l0 -32 l16 0 l16 0 l0 -15 l0 -16 l15 0 l16 0 l0 -16 l0 -15 l15 0 l16 0 l0 -16 l0 -16 l16 0 l15 0 l0 -15 l0 -16 l31 0 l32 0 l0 -15 l0 -16 l31 0 l31 0 l0 -16 l0 -15 l16 0 l16 0 l0 -16 l0 -15 l15 0 l16 0 l0 -32 l0 -31 l15 0 l16 0 l0 -63 l0 -62 l-16 0 l-15 0 l0 -31 l0 -31 l-16 0 l-15 0 l0 -16 l0 -16 l-16 0 l-16 0 l0 -15 l0 -16 l-31 0 l-31 0 l0 -16 l0 -15 l-63 0 l-62 0 Z"></path></symbol><symbol id="three" viewBox="0 -232 1000 1000"><path d="M219 -12 l0 15 l0 16 l-31 0 l-32 0 l0 16 l0 15 l-15 0 l-16 0 l0 16 l0 16 l-16 0 l-15 0 l0 31 l0 31 l-16 0 l-16 0 l0 31 l0 31 l47 0 l47 0 l0 -31 l0 -31 l16 0 l16 0 l0 -16 l0 -15 l15 0 l16 0 l0 -16 l0 -15 l62 0 l63 0 l0 15 l0 16 l15 0 l16 0 l0 15 l0 16 l16 0 l15 0 l0 47 l0 47 l-15 0 l-16 0 l0 15 l0 16 l-63 0 l-62 0 l0 47 l0 47 l62 0 l63 0 l0 15 l0 16 l16 0 l15 0 l0 16 l0 15 l16 0 l16 0 l0 63 l0 62 l-16 0 l-16 0 l0 16 l0 16 l-15 0 l-16 0 l0 15 l0 16 l-94 0 l-93 0 l0 -16 l0 -15 l-16 0 l-16 0 l0 -16 l0 -16 l-15 0 l-16 0 l0 -31 l0 -31 l-47 0 l-47 0 l0 31 l0 31 l16 0 l15 0 l0 32 l0 31 l16 0 l16 0 l0 15 l0 16 l15 0 l16 0 l0 16 l0 15 l31 0 l32 0 l0 16 l0 15 l93 0 l94 0 l0 -15 l0 -16 l31 0 l32 0 l0 -15 l0 -16 l15 0 l16 0 l0 -16 l0 -15 l15 0 l16 0 l0 -31 l0 -32 l16 0 l15 0 l0 -62 l0 -63 l-15 0 l-16 0 l0 -31 l0 -31 l-16 0 l-15 0 l0 -16 l0 -15 l-16 0 l-15 0 l0 -16 l0 -16 l15 0 l16 0 l0 -31 l0 -31 l15 0 l16 0 l0 -47 l0 -47 l-16 0 l-15 0 l0 -31 l0 -31 l-16 0 l-15 0 l0 -16 l0 -16 l-16 0 l-16 0 l0 -15 l0 -16 l-31 0 l-31 0 l0 -16 l0 -15 l-63 0 l-62 0 Z"></path></symbol><symbol id="four" viewBox="0 -232 1000 1000"><path d="M312 -12 l0 15 l0 16 l-15 0 l-16 0 l0 31 l0 32 l-15 0 l-16 0 l0 15 l0 16 l-16 0 l-15 0 l0 31 l0 31 l-16 0 l-15 0 l0 16 l0 15 l-16 0 l-16 0 l0 32 l0 31 l-15 0 l-16 0 l0 16 l0 15 l-16 0 l-15 0 l0 32 l0 31 l-16 0 l-16 0 l0 31 l0 31 l-15 0 l-16 0 l0 63 l0 62 l157 0 l156 0 l0 78 l0 78 l47 0 l47 0 l0 -78 l0 -78 l46 0 l47 0 l0 -47 l0 -47 l-47 0 l-46 0 l0 -234 l0 -234 l-63 0 l-63 0 ZM344 144 l0 156 l0 156 l-94 0 l-94 0 l0 -31 l0 -31 l16 0 l16 0 l0 -31 l0 -31 l15 0 l16 0 l0 -16 l0 -16 l15 0 l16 0 l0 -31 l0 -31 l16 0 l15 0 l0 -16 l0 -16 l16 0 l15 0 l0 -31 l0 -31 l16 0 l16 0 Z"></path></symbol><symbol id="five" viewBox="0 -232 1000 1000"><path d="M125 -12 l0 62 l0 63 l-16 0 l-15 0 l0 62 l0 63 l-16 0 l-16 0 l0 62 l0 63 l47 0 l47 0 l0 -16 l0 -15 l16 0 l16 0 l0 -16 l0 -16 l93 0 l94 0 l0 16 l0 16 l16 0 l15 0 l0 15 l0 16 l16 0 l16 0 l0 93 l0 94 l-16 0 l-16 0 l0 16 l0 16 l-15 0 l-16 0 l0 15 l0 16 l-94 0 l-93 0 l0 -16 l0 -15 l-16 0 l-16 0 l0 -16 l0 -16 l-15 0 l-16 0 l0 -31 l0 -31 l-47 0 l-47 0 l0 31 l0 31 l16 0 l15 0 l0 32 l0 31 l16 0 l16 0 l0 15 l0 16 l15 0 l16 0 l0 16 l0 15 l31 0 l32 0 l0 16 l0 15 l93 0 l94 0 l0 -15 l0 -16 l31 0 l32 0 l0 -15 l0 -16 l15 0 l16 0 l0 -16 l0 -15 l15 0 l16 0 l0 -31 l0 -32 l16 0 l15 0 l0 -109 l0 -109 l-15 0 l-16 0 l0 -32 l0 -31 l-16 0 l-15 0 l0 -16 l0 -15 l-31 0 l-32 0 l0 -16 l0 -16 l-94 0 l-93 0 l0 16 l0 16 l-16 0 l-15 0 l0 -63 l0 -62 l15 0 l16 0 l0 -16 l0 -15 l140 0 l141 0 l0 -47 l0 -47 l-188 0 l-187 0 Z"></path></symbol><symbol id="six" viewBox="0 -232 1000 1000"><path d="M219 -12 l0 15 l0 16 l-31 0 l-32 0 l0 16 l0 15 l-15 0 l-16 0 l0 16 l0 16 l-16 0 l-15 0 l0 31 l0 31 l-16 0 l-16 0 l0 203 l0 203 l16 0 l16 0 l0 32 l0 31 l15 0 l16 0 l0 15 l0 16 l16 0 l15 0 l0 16 l0 15 l32 0 l31 0 l0 16 l0 15 l78 0 l78 0 l0 -15 l0 -16 l31 0 l32 0 l0 -15 l0 -16 l15 0 l16 0 l0 -16 l0 -15 l15 0 l16 0 l0 -31 l0 -32 l16 0 l15 0 l0 -78 l0 -78 l-15 0 l-16 0 l0 -31 l0 -31 l-16 0 l-15 0 l0 -16 l0 -16 l-16 0 l-15 0 l0 -15 l0 -16 l-32 0 l-31 0 l0 -16 l0 -15 l-63 0 l-62 0 l0 15 l0 16 l-31 0 l-31 0 l0 16 l0 15 l-16 0 l-16 0 l0 -62 l0 -63 l16 0 l16 0 l0 -31 l0 -31 l31 0 l31 0 l0 -16 l0 -15 l47 0 l47 0 l0 15 l0 16 l31 0 l31 0 l0 31 l0 31 l47 0 l47 0 l0 -31 l0 -31 l-16 0 l-15 0 l0 -31 l0 -32 l-16 0 l-15 0 l0 -15 l0 -16 l-32 0 l-31 0 l0 -16 l0 -15 l-78 0 l-78 0 ZM344 332 l0 15 l0 16 l31 0 l31 0 l0 31 l0 31 l16 0 l16 0 l0 47 l0 47 l-16 0 l-16 0 l0 31 l0 32 l-31 0 l-31 0 l0 15 l0 16 l-47 0 l-47 0 l0 -16 l0 -15 l-31 0 l-31 0 l0 -32 l0 -31 l-16 0 l-16 0 l0 -47 l0 -47 l16 0 l16 0 l0 -31 l0 -31 l31 0 l31 0 l0 -16 l0 -15 l47 0 l47 0 Z"></path></symbol><symbol id="seven" viewBox="0 -232 1000 1000"><path d="M31 -12 l0 47 l0 47 l188 0 l187 0 l0 15 l0 16 l-15 0 l-16 0 l0 15 l0 16 l-16 0 l-15 0 l0 31 l0 31 l-16 0 l-16 0 l0 32 l0 31 l-15 0 l-16 0 l0 31 l0 32 l-15 0 l-16 0 l0 46 l0 47 l-16 0 l-15 0 l0 47 l0 47 l-16 0 l-15 0 l0 94 l0 93 l46 0 l47 0 l0 -78 l0 -78 l16 0 l15 0 l0 -47 l0 -47 l16 0 l16 0 l0 -46 l0 -47 l15 0 l16 0 l0 -31 l0 -32 l16 0 l15 0 l0 -31 l0 -31 l16 0 l16 0 l0 -32 l0 -31 l15 0 l16 0 l0 -15 l0 -16 l15 0 l16 0 l0 -16 l0 -15 l16 0 l15 0 l0 -63 l0 -62 l-250 0 l-250 0 Z"></path></symbol><symbol id="eight" viewBox="0 -232 1000 1000"><path d="M219 -12 l0 15 l0 16 l-31 0 l-32 0 l0 16 l0 15 l-15 0 l-16 0 l0 16 l0 16 l-16 0 l-15 0 l0 31 l0 31 l-16 0 l-16 0 l0 47 l0 47 l16 0 l16 0 l0 31 l0 31 l15 0 l16 0 l0 16 l0 16 l-16 0 l-15 0 l0 15 l0 16 l-16 0 l-16 0 l0 31 l0 31 l-15 0 l-16 0 l0 63 l0 62 l16 0 l15 0 l0 32 l0 31 l16 0 l16 0 l0 15 l0 16 l15 0 l16 0 l0 16 l0 15 l31 0 l32 0 l0 16 l0 15 l93 0 l94 0 l0 -15 l0 -16 l31 0 l32 0 l0 -15 l0 -16 l15 0 l16 0 l0 -16 l0 -15 l15 0 l16 0 l0 -31 l0 -32 l16 0 l15 0 l0 -62 l0 -63 l-15 0 l-16 0 l0 -31 l0 -31 l-16 0 l-15 0 l0 -16 l0 -15 l-16 0 l-15 0 l0 -16 l0 -16 l15 0 l16 0 l0 -31 l0 -31 l15 0 l16 0 l0 -47 l0 -47 l-16 0 l-15 0 l0 -31 l0 -31 l-16 0 l-15 0 l0 -16 l0 -16 l-16 0 l-16 0 l0 -15 l0 -16 l-31 0 l-31 0 l0 -16 l0 -15 l-63 0 l-62 0 ZM344 82 l0 15 l0 16 l15 0 l16 0 l0 15 l0 16 l16 0 l15 0 l0 47 l0 47 l-15 0 l-16 0 l0 15 l0 16 l-94 0 l-93 0 l0 -16 l0 -15 l-16 0 l-16 0 l0 -47 l0 -47 l16 0 l16 0 l0 -16 l0 -15 l15 0 l16 0 l0 -16 l0 -15 l62 0 l63 0 ZM375 363 l0 15 l0 16 l16 0 l15 0 l0 16 l0 15 l16 0 l16 0 l0 63 l0 62 l-16 0 l-16 0 l0 16 l0 16 l-15 0 l-16 0 l0 15 l0 16 l-94 0 l-93 0 l0 -16 l0 -15 l-16 0 l-16 0 l0 -16 l0 -16 l-15 0 l-16 0 l0 -62 l0 -63 l16 0 l15 0 l0 -15 l0 -16 l16 0 l16 0 l0 -16 l0 -15 l93 0 l94 0 Z"></path></symbol><symbol id="nine" viewBox="0 -232 1000 1000"><path d="M188 -12 l0 15 l0 16 l-32 0 l-31 0 l0 16 l0 15 l-16 0 l-15 0 l0 16 l0 16 l-16 0 l-16 0 l0 31 l0 31 l-15 0 l-16 0 l0 78 l0 78 l16 0 l15 0 l0 32 l0 31 l16 0 l16 0 l0 15 l0 16 l15 0 l16 0 l0 16 l0 15 l31 0 l32 0 l0 16 l0 15 l62 0 l62 0 l0 -15 l0 -16 l32 0 l31 0 l0 -15 l0 -16 l16 0 l15 0 l0 62 l0 63 l-15 0 l-16 0 l0 31 l0 32 l-31 0 l-32 0 l0 15 l0 16 l-46 0 l-47 0 l0 -16 l0 -15 l-31 0 l-32 0 l0 -32 l0 -31 l-47 0 l-47 0 l0 31 l0 32 l16 0 l16 0 l0 31 l0 31 l15 0 l16 0 l0 16 l0 15 l31 0 l32 0 l0 16 l0 15 l78 0 l78 0 l0 -15 l0 -16 l31 0 l31 0 l0 -15 l0 -16 l16 0 l16 0 l0 -16 l0 -15 l15 0 l16 0 l0 -31 l0 -32 l15 0 l16 0 l0 -203 l0 -203 l-16 0 l-15 0 l0 -31 l0 -31 l-16 0 l-15 0 l0 -16 l0 -16 l-16 0 l-16 0 l0 -15 l0 -16 l-31 0 l-31 0 l0 -16 l0 -15 l-78 0 l-78 0 ZM312 82 l0 15 l0 16 l32 0 l31 0 l0 31 l0 31 l16 0 l15 0 l0 47 l0 47 l-15 0 l-16 0 l0 31 l0 32 l-31 0 l-32 0 l0 15 l0 16 l-46 0 l-47 0 l0 -16 l0 -15 l-31 0 l-32 0 l0 -32 l0 -31 l-15 0 l-16 0 l0 -47 l0 -47 l16 0 l15 0 l0 -31 l0 -31 l32 0 l31 0 l0 -16 l0 -15 l47 0 l46 0 Z"></path></symbol><symbol id="colon" viewBox="0 -232 1000 1000"><path d="M94 395 l0 47 l0 46 l47 0 l47 0 l0 -46 l0 -47 l-47 0 l-47 0 ZM94 -12 l0 47 l0 47 l47 0 l47 0 l0 -47 l0 -47 l-47 0 l-47 0 Z"></path></symbol><symbol id="semicolon" viewBox="0 -232 1000 1000"><path d="M94 301 l0 47 l0 46 l31 0 l31 0 l0 16 l0 16 l-15 0 l-16 0 l0 15 l0 16 l-16 0 l-15 0 l0 16 l0 15 l15 0 l16 0 l0 -15 l0 -16 l16 0 l15 0 l0 -16 l0 -15 l16 0 l16 0 l0 -63 l0 -62 l-47 0 l-47 0 ZM94 -106 l0 47 l0 47 l47 0 l47 0 l0 -47 l0 -47 l-47 0 l-47 0 Z"></path></symbol><symbol id="less" viewBox="0 -232 1000 1000"><path d="M469 81 l0 15 l0 16 l-31 0 l-32 0 l0 16 l0 15 l-31 0 l-31 0 l0 16 l0 15 l-32 0 l-31 0 l0 16 l0 16 l-31 0 l-31 0 l0 15 l0 16 l-31 0 l-32 0 l0 16 l0 15 l-31 0 l-31 0 l0 16 l0 16 l-32 0 l-31 0 l0 31 l0 31 l31 0 l32 0 l0 16 l0 15 l31 0 l31 0 l0 16 l0 15 l32 0 l31 0 l0 16 l0 16 l31 0 l31 0 l0 15 l0 16 l31 0 l32 0 l0 16 l0 15 l31 0 l31 0 l0 16 l0 16 l32 0 l31 0 l0 15 l0 16 l31 0 l31 0 l0 -47 l0 -47 l-31 0 l-31 0 l0 -16 l0 -15 l-31 0 l-32 0 l0 -16 l0 -16 l-31 0 l-31 0 l0 -15 l0 -16 l-32 0 l-31 0 l0 -15 l0 -16 l-31 0 l-31 0 l0 -31 l0 -31 l31 0 l31 0 l0 -16 l0 -16 l31 0 l32 0 l0 -15 l0 -16 l31 0 l31 0 l0 -16 l0 -15 l32 0 l31 0 l0 -16 l0 -16 l31 0 l31 0 l0 -46 l0 -47 l-31 0 l-31 0 Z"></path></symbol><symbol id="equal" viewBox="0 -232 1000 1000"><path d="M31 394 l0 47 l0 47 l266 0 l265 0 l0 -47 l0 -47 l-265 0 l-266 0 ZM31 206 l0 47 l0 47 l266 0 l265 0 l0 -47 l0 -47 l-265 0 l-266 0 Z"></path></symbol><symbol id="greater" viewBox="0 -232 1000 1000"><path d="M62 81 l0 47 l0 46 l32 0 l31 0 l0 16 l0 16 l31 0 l32 0 l0 15 l0 16 l31 0 l31 0 l0 16 l0 15 l31 0 l31 0 l0 16 l0 16 l32 0 l31 0 l0 31 l0 31 l-31 0 l-32 0 l0 16 l0 15 l-31 0 l-31 0 l0 16 l0 15 l-31 0 l-31 0 l0 16 l0 16 l-32 0 l-31 0 l0 15 l0 16 l-31 0 l-32 0 l0 47 l0 47 l32 0 l31 0 l0 -16 l0 -15 l31 0 l32 0 l0 -16 l0 -16 l31 0 l31 0 l0 -15 l0 -16 l31 0 l31 0 l0 -16 l0 -15 l32 0 l31 0 l0 -16 l0 -16 l31 0 l32 0 l0 -15 l0 -16 l31 0 l31 0 l0 -15 l0 -16 l31 0 l31 0 l0 -31 l0 -31 l-31 0 l-31 0 l0 -16 l0 -16 l-31 0 l-31 0 l0 -15 l0 -16 l-32 0 l-31 0 l0 -16 l0 -15 l-31 0 l-32 0 l0 -16 l0 -16 l-31 0 l-31 0 l0 -15 l0 -16 l-31 0 l-31 0 l0 -15 l0 -16 l-32 0 l-31 0 l0 -16 l0 -15 l-31 0 l-32 0 Z"></path></symbol><symbol id="question" viewBox="0 -232 1000 1000"><path d="M219 613 l0 47 l0 46 l47 0 l46 0 l0 -46 l0 -47 l-46 0 l-47 0 ZM188 -12 l0 15 l0 16 l-32 0 l-31 0 l0 16 l0 15 l-16 0 l-15 0 l0 16 l0 16 l-16 0 l-16 0 l0 31 l0 31 l-15 0 l-16 0 l0 31 l0 31 l47 0 l47 0 l0 -31 l0 -31 l16 0 l15 0 l0 -16 l0 -15 l16 0 l16 0 l0 -16 l0 -15 l78 0 l78 0 l0 15 l0 16 l15 0 l16 0 l0 15 l0 16 l16 0 l15 0 l0 62 l0 63 l-15 0 l-16 0 l0 16 l0 15 l-16 0 l-15 0 l0 16 l0 16 l-16 0 l-16 0 l0 15 l0 16 l-15 0 l-16 0 l0 15 l0 16 l-15 0 l-16 0 l0 31 l0 31 l-16 0 l-15 0 l0 32 l0 31 l47 0 l46 0 l0 -31 l0 -32 l16 0 l16 0 l0 -15 l0 -16 l15 0 l16 0 l0 -15 l0 -16 l16 0 l15 0 l0 -16 l0 -15 l16 0 l16 0 l0 -16 l0 -15 l15 0 l16 0 l0 -32 l0 -31 l15 0 l16 0 l0 -63 l0 -62 l-16 0 l-15 0 l0 -31 l0 -31 l-16 0 l-15 0 l0 -16 l0 -16 l-16 0 l-16 0 l0 -15 l0 -16 l-31 0 l-31 0 l0 -16 l0 -15 l-78 0 l-78 0 Z"></path></symbol><symbol id="at" viewBox="0 -232 1000 1000"><path d="M375 -106 l0 15 l0 16 l-47 0 l-47 0 l0 16 l0 15 l-31 0 l-31 0 l0 16 l0 16 l-16 0 l-15 0 l0 15 l0 16 l-16 0 l-16 0 l0 15 l0 16 l-15 0 l-16 0 l0 16 l0 15 l-16 0 l-15 0 l0 31 l0 32 l-16 0 l-16 0 l0 47 l0 47 l-15 0 l-16 0 l0 78 l0 78 l16 0 l15 0 l0 47 l0 47 l16 0 l16 0 l0 31 l0 31 l15 0 l16 0 l0 16 l0 15 l16 0 l15 0 l0 16 l0 15 l16 0 l16 0 l0 16 l0 16 l31 0 l31 0 l0 15 l0 16 l47 0 l47 0 l0 16 l0 15 l125 0 l125 0 l0 -15 l0 -16 l31 0 l31 0 l0 -16 l0 -15 l16 0 l16 0 l0 -16 l0 -16 l-47 0 l-47 0 l0 16 l0 16 l-125 0 l-125 0 l0 -16 l0 -16 l-32 0 l-31 0 l0 -15 l0 -16 l-31 0 l-31 0 l0 -15 l0 -16 l-16 0 l-15 0 l0 -16 l0 -15 l-16 0 l-16 0 l0 -16 l0 -15 l-15 0 l-16 0 l0 -47 l0 -47 l-16 0 l-15 0 l0 -78 l0 -78 l15 0 l16 0 l0 -47 l0 -47 l16 0 l15 0 l0 -16 l0 -16 l16 0 l16 0 l0 -15 l0 -16 l15 0 l16 0 l0 -15 l0 -16 l15 0 l16 0 l0 -16 l0 -15 l16 0 l15 0 l0 -16 l0 -15 l47 0 l47 0 l0 -16 l0 -16 l109 0 l110 0 l0 16 l0 16 l47 0 l47 0 l0 15 l0 16 l15 0 l16 0 l0 15 l0 16 l15 0 l16 0 l0 16 l0 15 l16 0 l15 0 l0 16 l0 15 l16 0 l15 0 l0 32 l0 31 l16 0 l16 0 l0 78 l0 78 l-16 0 l-16 0 l0 31 l0 32 l-15 0 l-16 0 l0 15 l0 16 l-15 0 l-16 0 l0 16 l0 15 l-62 0 l-63 0 l0 -15 l0 -16 l-16 0 l-15 0 l0 -31 l0 -32 l15 0 l16 0 l0 -46 l0 -47 l16 0 l15 0 l0 -47 l0 -47 l16 0 l16 0 l0 -31 l0 -32 l-32 0 l-31 0 l0 16 l0 16 l-16 0 l-15 0 l0 -16 l0 -16 l-16 0 l-16 0 l0 -15 l0 -16 l-62 0 l-62 0 l0 16 l0 15 l-32 0 l-31 0 l0 16 l0 16 l-16 0 l-15 0 l0 15 l0 16 l-16 0 l-16 0 l0 31 l0 32 l-15 0 l-16 0 l0 31 l0 31 l-15 0 l-16 0 l0 62 l0 63 l16 0 l15 0 l0 16 l0 15 l16 0 l15 0 l0 16 l0 16 l16 0 l16 0 l0 15 l0 16 l78 0 l78 0 l0 -16 l0 -15 l16 0 l15 0 l0 -16 l0 -16 l16 0 l15 0 l0 16 l0 16 l16 0 l16 0 l0 15 l0 16 l78 0 l78 0 l0 -16 l0 -15 l31 0 l31 0 l0 -16 l0 -16 l16 0 l16 0 l0 -31 l0 -31 l15 0 l16 0 l0 -32 l0 -31 l16 0 l15 0 l0 -78 l0 -78 l-15 0 l-16 0 l0 -31 l0 -32 l-16 0 l-15 0 l0 -31 l0 -31 l-16 0 l-16 0 l0 -16 l0 -15 l-15 0 l-16 0 l0 -16 l0 -15 l-15 0 l-16 0 l0 -16 l0 -16 l-31 0 l-31 0 l0 -15 l0 -16 l-47 0 l-47 0 l0 -16 l0 -15 l-110 0 l-109 0 ZM562 144 l0 15 l0 16 l16 0 l16 0 l0 47 l0 47 l-16 0 l-16 0 l0 47 l0 46 l-15 0 l-16 0 l0 16 l0 16 l-15 0 l-16 0 l0 15 l0 16 l-16 0 l-15 0 l0 16 l0 15 l-63 0 l-62 0 l0 -15 l0 -16 l-16 0 l-16 0 l0 -63 l0 -62 l16 0 l16 0 l0 -31 l0 -31 l15 0 l16 0 l0 -32 l0 -31 l31 0 l32 0 l0 -16 l0 -15 l62 0 l62 0 Z"></path></symbol><symbol id="A" viewBox="0 -232 1000 1000"><path d="M281 -12 l0 31 l0 31 l-15 0 l-16 0 l0 47 l0 47 l-16 0 l-15 0 l0 47 l0 47 l-16 0 l-15 0 l0 31 l0 31 l-16 0 l-16 0 l0 47 l0 47 l-15 0 l-16 0 l0 47 l0 47 l-16 0 l-15 0 l0 31 l0 31 l-16 0 l-16 0 l0 47 l0 47 l-15 0 l-16 0 l0 31 l0 31 l47 0 l47 0 l0 -15 l0 -16 l16 0 l15 0 l0 -47 l0 -46 l16 0 l16 0 l0 -16 l0 -16 l171 0 l172 0 l0 16 l0 16 l16 0 l15 0 l0 46 l0 47 l16 0 l16 0 l0 16 l0 15 l47 0 l47 0 l0 -31 l0 -31 l-16 0 l-16 0 l0 -47 l0 -47 l-15 0 l-16 0 l0 -31 l0 -31 l-16 0 l-15 0 l0 -47 l0 -47 l-16 0 l-16 0 l0 -47 l0 -47 l-15 0 l-16 0 l0 -31 l0 -31 l-15 0 l-16 0 l0 -47 l0 -47 l-16 0 l-15 0 l0 -47 l0 -47 l-16 0 l-15 0 l0 -31 l0 -31 l-79 0 l-78 0 ZM375 113 l0 31 l0 31 l16 0 l15 0 l0 47 l0 47 l16 0 l16 0 l0 31 l0 32 l15 0 l16 0 l0 46 l0 47 l15 0 l16 0 l0 16 l0 15 l-141 0 l-140 0 l0 -15 l0 -16 l15 0 l16 0 l0 -47 l0 -46 l16 0 l15 0 l0 -32 l0 -31 l16 0 l15 0 l0 -47 l0 -47 l16 0 l16 0 l0 -31 l0 -31 l15 0 l16 0 Z"></path></symbol><symbol id="B" viewBox="0 -232 1000 1000"><path d="M94 -12 l0 359 l0 359 l203 0 l203 0 l0 -15 l0 -16 l31 0 l31 0 l0 -15 l0 -16 l16 0 l16 0 l0 -31 l0 -31 l15 0 l16 0 l0 -79 l0 -78 l-16 0 l-15 0 l0 -31 l0 -31 l-16 0 l-16 0 l0 -16 l0 -15 l-15 0 l-16 0 l0 -16 l0 -16 l16 0 l15 0 l0 -31 l0 -31 l16 0 l16 0 l0 -63 l0 -62 l-16 0 l-16 0 l0 -31 l0 -32 l-15 0 l-16 0 l0 -15 l0 -16 l-31 0 l-31 0 l0 -16 l0 -15 l-188 0 l-187 0 ZM469 82 l0 15 l0 16 l15 0 l16 0 l0 62 l0 63 l-16 0 l-15 0 l0 15 l0 16 l-141 0 l-140 0 l0 -94 l0 -93 l140 0 l141 0 ZM469 363 l0 15 l0 16 l15 0 l16 0 l0 16 l0 15 l16 0 l15 0 l0 63 l0 62 l-15 0 l-16 0 l0 16 l0 16 l-16 0 l-15 0 l0 15 l0 16 l-141 0 l-140 0 l0 -125 l0 -125 l140 0 l141 0 Z"></path></symbol><symbol id="C" viewBox="0 -232 1000 1000"><path d="M312 -12 l0 15 l0 16 l-46 0 l-47 0 l0 16 l0 15 l-16 0 l-15 0 l0 16 l0 16 l-16 0 l-16 0 l0 15 l0 16 l-15 0 l-16 0 l0 15 l0 16 l-16 0 l-15 0 l0 47 l0 47 l-16 0 l-16 0 l0 109 l0 109 l16 0 l16 0 l0 47 l0 47 l15 0 l16 0 l0 16 l0 16 l16 0 l15 0 l0 15 l0 16 l16 0 l16 0 l0 15 l0 16 l15 0 l16 0 l0 16 l0 15 l47 0 l46 0 l0 16 l0 15 l94 0 l94 0 l0 -15 l0 -16 l47 0 l47 0 l0 -15 l0 -16 l15 0 l16 0 l0 -16 l0 -15 l16 0 l15 0 l0 -16 l0 -15 l16 0 l16 0 l0 -16 l0 -16 l15 0 l16 0 l0 -47 l0 -47 l-47 0 l-47 0 l0 32 l0 31 l-16 0 l-15 0 l0 16 l0 15 l-16 0 l-16 0 l0 16 l0 16 l-31 0 l-31 0 l0 15 l0 16 l-94 0 l-94 0 l0 -16 l0 -15 l-31 0 l-31 0 l0 -16 l0 -16 l-16 0 l-15 0 l0 -15 l0 -16 l-16 0 l-15 0 l0 -31 l0 -32 l-16 0 l-16 0 l0 -109 l0 -109 l16 0 l16 0 l0 -32 l0 -31 l15 0 l16 0 l0 -15 l0 -16 l15 0 l16 0 l0 -16 l0 -15 l31 0 l31 0 l0 -16 l0 -15 l94 0 l94 0 l0 15 l0 16 l31 0 l31 0 l0 15 l0 16 l16 0 l16 0 l0 16 l0 15 l15 0 l16 0 l0 31 l0 32 l47 0 l47 0 l0 -47 l0 -47 l-16 0 l-15 0 l0 -16 l0 -15 l-16 0 l-16 0 l0 -16 l0 -15 l-15 0 l-16 0 l0 -16 l0 -16 l-16 0 l-15 0 l0 -15 l0 -16 l-47 0 l-47 0 l0 -16 l0 -15 l-94 0 l-94 0 Z"></path></symbol><symbol id="D" viewBox="0 -232 1000 1000"><path d="M94 -12 l0 359 l0 359 l172 0 l172 0 l0 -15 l0 -16 l46 0 l47 0 l0 -15 l0 -16 l16 0 l15 0 l0 -16 l0 -15 l16 0 l16 0 l0 -16 l0 -15 l15 0 l16 0 l0 -16 l0 -16 l16 0 l15 0 l0 -47 l0 -47 l16 0 l16 0 l0 -109 l0 -109 l-16 0 l-16 0 l0 -47 l0 -47 l-15 0 l-16 0 l0 -16 l0 -15 l-16 0 l-15 0 l0 -16 l0 -15 l-16 0 l-16 0 l0 -16 l0 -16 l-15 0 l-16 0 l0 -15 l0 -16 l-47 0 l-46 0 l0 -16 l0 -15 l-172 0 l-172 0 ZM438 82 l0 15 l0 16 l31 0 l31 0 l0 15 l0 16 l16 0 l15 0 l0 16 l0 15 l16 0 l15 0 l0 31 l0 32 l16 0 l16 0 l0 109 l0 109 l-16 0 l-16 0 l0 32 l0 31 l-15 0 l-16 0 l0 16 l0 15 l-15 0 l-16 0 l0 16 l0 16 l-31 0 l-31 0 l0 15 l0 16 l-126 0 l-124 0 l0 -266 l0 -265 l124 0 l126 0 Z"></path></symbol><symbol id="E" viewBox="0 -232 1000 1000"><path d="M94 -12 l0 359 l0 359 l265 0 l266 0 l0 -46 l0 -47 l-219 0 l-218 0 l0 -125 l0 -125 l187 0 l187 0 l0 -47 l0 -47 l-187 0 l-187 0 l0 -94 l0 -93 l218 0 l219 0 l0 -47 l0 -47 l-266 0 l-265 0 Z"></path></symbol><symbol id="F" viewBox="0 -232 1000 1000"><path d="M94 -12 l0 359 l0 359 l47 0 l47 0 l0 -171 l0 -172 l171 0 l172 0 l0 -47 l0 -47 l-172 0 l-171 0 l0 -94 l0 -93 l218 0 l219 0 l0 -47 l0 -47 l-266 0 l-265 0 Z"></path></symbol><symbol id="G" viewBox="0 -232 1000 1000"><path d="M312 -12 l0 15 l0 16 l-46 0 l-47 0 l0 16 l0 15 l-16 0 l-15 0 l0 16 l0 16 l-16 0 l-16 0 l0 15 l0 16 l-15 0 l-16 0 l0 15 l0 16 l-16 0 l-15 0 l0 47 l0 47 l-16 0 l-16 0 l0 109 l0 109 l16 0 l16 0 l0 47 l0 47 l15 0 l16 0 l0 16 l0 16 l16 0 l15 0 l0 15 l0 16 l16 0 l16 0 l0 15 l0 16 l15 0 l16 0 l0 16 l0 15 l47 0 l46 0 l0 16 l0 15 l94 0 l94 0 l0 -15 l0 -16 l31 0 l31 0 l0 -15 l0 -16 l16 0 l16 0 l0 -16 l0 -15 l15 0 l16 0 l0 47 l0 46 l47 0 l47 0 l0 -187 l0 -187 l-141 0 l-140 0 l0 46 l0 47 l93 0 l94 0 l0 31 l0 32 l-16 0 l-15 0 l0 31 l0 31 l-16 0 l-16 0 l0 16 l0 16 l-31 0 l-31 0 l0 15 l0 16 l-94 0 l-94 0 l0 -16 l0 -15 l-31 0 l-31 0 l0 -16 l0 -16 l-16 0 l-15 0 l0 -15 l0 -16 l-16 0 l-15 0 l0 -31 l0 -32 l-16 0 l-16 0 l0 -109 l0 -109 l16 0 l16 0 l0 -32 l0 -31 l15 0 l16 0 l0 -15 l0 -16 l15 0 l16 0 l0 -16 l0 -15 l31 0 l31 0 l0 -16 l0 -15 l94 0 l94 0 l0 15 l0 16 l31 0 l31 0 l0 15 l0 16 l16 0 l16 0 l0 16 l0 15 l15 0 l16 0 l0 31 l0 32 l47 0 l47 0 l0 -47 l0 -47 l-16 0 l-15 0 l0 -16 l0 -15 l-16 0 l-16 0 l0 -16 l0 -15 l-15 0 l-16 0 l0 -16 l0 -16 l-16 0 l-15 0 l0 -15 l0 -16 l-47 0 l-47 0 l0 -16 l0 -15 l-94 0 l-94 0 Z"></path></symbol><symbol id="H" viewBox="0 -232 1000 1000"><path d="M94 -12 l0 359 l0 359 l47 0 l47 0 l0 -171 l0 -172 l187 0 l187 0 l0 172 l0 171 l47 0 l47 0 l0 -359 l0 -359 l-47 0 l-47 0 l0 140 l0 141 l-187 0 l-187 0 l0 -141 l0 -140 l-47 0 l-47 0 Z"></path></symbol><symbol id="I" viewBox="0 -232 1000 1000"><path d="M94 -12 l0 359 l0 359 l47 0 l47 0 l0 -359 l0 -359 l-47 0 l-47 0 Z"></path></symbol><symbol id="J" viewBox="0 -232 1000 1000"><path d="M344 -12 l0 281 l0 281 l-16 0 l-16 0 l0 16 l0 16 l-15 0 l-16 0 l0 15 l0 16 l-47 0 l-46 0 l0 -16 l0 -15 l-16 0 l-16 0 l0 -16 l0 -16 l-15 0 l-16 0 l0 -62 l0 -63 l-47 0 l-47 0 l0 78 l0 79 l16 0 l15 0 l0 31 l0 31 l16 0 l16 0 l0 16 l0 15 l31 0 l31 0 l0 16 l0 15 l78 0 l78 0 l0 -15 l0 -16 l32 0 l31 0 l0 -15 l0 -16 l16 0 l15 0 l0 -31 l0 -31 l16 0 l16 0 l0 -297 l0 -297 l-47 0 l-47 0 Z"></path></symbol><symbol id="K" viewBox="0 -232 1000 1000"><path d="M62 -12 l0 359 l0 359 l47 0 l47 0 l0 -140 l0 -141 l16 0 l16 0 l0 -15 l0 -16 l15 0 l16 0 l0 -16 l0 -15 l15 0 l16 0 l0 15 l0 16 l16 0 l15 0 l0 16 l0 15 l16 0 l15 0 l0 16 l0 15 l16 0 l16 0 l0 16 l0 16 l15 0 l16 0 l0 15 l0 16 l16 0 l15 0 l0 16 l0 15 l16 0 l16 0 l0 16 l0 16 l15 0 l16 0 l0 15 l0 16 l15 0 l16 0 l0 15 l0 16 l16 0 l15 0 l0 16 l0 15 l16 0 l15 0 l0 16 l0 15 l47 0 l47 0 l0 -31 l0 -31 l-15 0 l-16 0 l0 -16 l0 -15 l-16 0 l-15 0 l0 -16 l0 -15 l-16 0 l-16 0 l0 -16 l0 -16 l-15 0 l-16 0 l0 -15 l0 -16 l-15 0 l-16 0 l0 -16 l0 -15 l-16 0 l-15 0 l0 -16 l0 -16 l-16 0 l-15 0 l0 -15 l0 -16 l-16 0 l-16 0 l0 -15 l0 -16 l-15 0 l-16 0 l0 -16 l0 -15 l-16 0 l-15 0 l0 -16 l0 -15 l-16 0 l-16 0 l0 -32 l0 -31 l16 0 l16 0 l0 -16 l0 -15 l15 0 l16 0 l0 -16 l0 -16 l16 0 l15 0 l0 -15 l0 -16 l16 0 l16 0 l0 -15 l0 -16 l15 0 l16 0 l0 -16 l0 -15 l15 0 l16 0 l0 -16 l0 -15 l16 0 l15 0 l0 -16 l0 -16 l16 0 l15 0 l0 -15 l0 -16 l16 0 l16 0 l0 -16 l0 -15 l-63 0 l-62 0 l0 15 l0 16 l-16 0 l-15 0 l0 16 l0 15 l-16 0 l-16 0 l0 16 l0 16 l-15 0 l-16 0 l0 15 l0 16 l-16 0 l-15 0 l0 15 l0 16 l-16 0 l-16 0 l0 16 l0 15 l-15 0 l-16 0 l0 16 l0 15 l-15 0 l-16 0 l0 16 l0 16 l-16 0 l-15 0 l0 15 l0 16 l-16 0 l-15 0 l0 16 l0 15 l-16 0 l-16 0 l0 -156 l0 -156 l-47 0 l-47 0 Z"></path></symbol><symbol id="L" viewBox="0 -232 1000 1000"><path d="M94 -12 l0 359 l0 359 l234 0 l234 0 l0 -46 l0 -47 l-187 0 l-187 0 l0 -313 l0 -312 l-47 0 l-47 0 Z"></path></symbol><symbol id="M" viewBox="0 -232 1000 1000"><path d="M94 -12 l0 359 l0 359 l47 0 l47 0 l0 -234 l0 -234 l15 0 l16 0 l0 47 l0 47 l15 0 l16 0 l0 46 l0 47 l16 0 l15 0 l0 47 l0 47 l16 0 l15 0 l0 47 l0 47 l16 0 l16 0 l0 47 l0 46 l78 0 l78 0 l0 -46 l0 -47 l16 0 l15 0 l0 -47 l0 -47 l16 0 l15 0 l0 -47 l0 -47 l16 0 l16 0 l0 -47 l0 -46 l15 0 l16 0 l0 -47 l0 -47 l16 0 l15 0 l0 234 l0 234 l47 0 l47 0 l0 -359 l0 -359 l-62 0 l-63 0 l0 15 l0 16 l-16 0 l-15 0 l0 47 l0 47 l-16 0 l-16 0 l0 47 l0 46 l-15 0 l-16 0 l0 47 l0 47 l-15 0 l-16 0 l0 47 l0 47 l-16 0 l-15 0 l0 47 l0 47 l-16 0 l-15 0 l0 47 l0 47 l-16 0 l-16 0 l0 -47 l0 -47 l-15 0 l-16 0 l0 -47 l0 -47 l-16 0 l-15 0 l0 -47 l0 -47 l-16 0 l-16 0 l0 -47 l0 -47 l-15 0 l-16 0 l0 -46 l0 -47 l-15 0 l-16 0 l0 -47 l0 -47 l-16 0 l-15 0 l0 -16 l0 -15 l-63 0 l-62 0 Z"></path></symbol><symbol id="N" viewBox="0 -232 1000 1000"><path d="M94 -12 l0 359 l0 359 l47 0 l47 0 l0 -281 l0 -281 l15 0 l16 0 l0 31 l0 31 l15 0 l16 0 l0 16 l0 16 l16 0 l15 0 l0 31 l0 31 l16 0 l15 0 l0 16 l0 16 l16 0 l16 0 l0 31 l0 31 l15 0 l16 0 l0 16 l0 15 l16 0 l15 0 l0 31 l0 32 l16 0 l16 0 l0 15 l0 16 l15 0 l16 0 l0 31 l0 32 l15 0 l16 0 l0 15 l0 16 l16 0 l15 0 l0 31 l0 31 l16 0 l15 0 l0 16 l0 15 l63 0 l63 0 l0 -359 l0 -359 l-47 0 l-47 0 l0 281 l0 281 l-16 0 l-16 0 l0 -31 l0 -31 l-15 0 l-16 0 l0 -16 l0 -16 l-15 0 l-16 0 l0 -31 l0 -31 l-16 0 l-15 0 l0 -16 l0 -15 l-16 0 l-15 0 l0 -31 l0 -32 l-16 0 l-16 0 l0 -15 l0 -16 l-15 0 l-16 0 l0 -31 l0 -32 l-16 0 l-15 0 l0 -15 l0 -16 l-16 0 l-16 0 l0 -31 l0 -31 l-15 0 l-16 0 l0 -16 l0 -15 l-15 0 l-16 0 l0 -32 l0 -31 l-16 0 l-15 0 l0 -16 l0 -15 l-63 0 l-62 0 Z"></path></symbol><symbol id="O" viewBox="0 -232 1000 1000"><path d="M312 -12 l0 15 l0 16 l-46 0 l-47 0 l0 16 l0 15 l-16 0 l-15 0 l0 16 l0 16 l-16 0 l-16 0 l0 15 l0 16 l-15 0 l-16 0 l0 15 l0 16 l-16 0 l-15 0 l0 47 l0 47 l-16 0 l-16 0 l0 109 l0 109 l16 0 l16 0 l0 47 l0 47 l15 0 l16 0 l0 16 l0 16 l16 0 l15 0 l0 15 l0 16 l16 0 l16 0 l0 15 l0 16 l15 0 l16 0 l0 16 l0 15 l47 0 l46 0 l0 16 l0 15 l94 0 l94 0 l0 -15 l0 -16 l47 0 l47 0 l0 -15 l0 -16 l15 0 l16 0 l0 -16 l0 -15 l16 0 l15 0 l0 -16 l0 -15 l16 0 l16 0 l0 -16 l0 -16 l15 0 l16 0 l0 -47 l0 -47 l15 0 l16 0 l0 -109 l0 -109 l-16 0 l-15 0 l0 -47 l0 -47 l-16 0 l-15 0 l0 -16 l0 -15 l-16 0 l-16 0 l0 -16 l0 -15 l-15 0 l-16 0 l0 -16 l0 -16 l-16 0 l-15 0 l0 -15 l0 -16 l-47 0 l-47 0 l0 -16 l0 -15 l-94 0 l-94 0 ZM500 82 l0 15 l0 16 l31 0 l31 0 l0 15 l0 16 l16 0 l16 0 l0 16 l0 15 l15 0 l16 0 l0 31 l0 32 l16 0 l15 0 l0 109 l0 109 l-15 0 l-16 0 l0 32 l0 31 l-16 0 l-15 0 l0 16 l0 15 l-16 0 l-16 0 l0 16 l0 16 l-31 0 l-31 0 l0 15 l0 16 l-94 0 l-94 0 l0 -16 l0 -15 l-31 0 l-31 0 l0 -16 l0 -16 l-16 0 l-15 0 l0 -15 l0 -16 l-16 0 l-15 0 l0 -31 l0 -32 l-16 0 l-16 0 l0 -109 l0 -109 l16 0 l16 0 l0 -32 l0 -31 l15 0 l16 0 l0 -15 l0 -16 l15 0 l16 0 l0 -16 l0 -15 l31 0 l31 0 l0 -16 l0 -15 l94 0 l94 0 Z"></path></symbol><symbol id="P" viewBox="0 -232 1000 1000"><path d="M94 -12 l0 359 l0 359 l47 0 l47 0 l0 -140 l0 -141 l156 0 l156 0 l0 -15 l0 -16 l31 0 l31 0 l0 -16 l0 -15 l16 0 l16 0 l0 -31 l0 -32 l15 0 l16 0 l0 -94 l0 -93 l-16 0 l-15 0 l0 -31 l0 -32 l-16 0 l-16 0 l0 -15 l0 -16 l-31 0 l-31 0 l0 -16 l0 -15 l-203 0 l-203 0 ZM469 82 l0 15 l0 16 l15 0 l16 0 l0 15 l0 16 l16 0 l15 0 l0 62 l0 63 l-15 0 l-16 0 l0 16 l0 15 l-16 0 l-15 0 l0 16 l0 16 l-141 0 l-140 0 l0 -126 l0 -124 l140 0 l141 0 Z"></path></symbol><symbol id="Q" viewBox="0 -232 1000 1000"><path d="M312 -12 l0 15 l0 16 l-46 0 l-47 0 l0 16 l0 15 l-16 0 l-15 0 l0 16 l0 16 l-16 0 l-16 0 l0 15 l0 16 l-15 0 l-16 0 l0 15 l0 16 l-16 0 l-15 0 l0 47 l0 47 l-16 0 l-16 0 l0 109 l0 109 l16 0 l16 0 l0 47 l0 47 l15 0 l16 0 l0 16 l0 16 l16 0 l15 0 l0 15 l0 16 l16 0 l16 0 l0 15 l0 16 l15 0 l16 0 l0 16 l0 15 l47 0 l46 0 l0 16 l0 15 l94 0 l94 0 l0 -15 l0 -16 l47 0 l47 0 l0 -15 l0 -16 l31 0 l31 0 l0 16 l0 15 l16 0 l16 0 l0 16 l0 15 l15 0 l16 0 l0 -15 l0 -16 l15 0 l16 0 l0 -31 l0 -31 l-16 0 l-15 0 l0 -16 l0 -15 l-16 0 l-15 0 l0 -16 l0 -16 l15 0 l16 0 l0 -47 l0 -47 l15 0 l16 0 l0 -109 l0 -109 l-16 0 l-15 0 l0 -47 l0 -47 l-16 0 l-15 0 l0 -16 l0 -15 l-16 0 l-16 0 l0 -16 l0 -15 l-15 0 l-16 0 l0 -16 l0 -16 l-16 0 l-15 0 l0 -15 l0 -16 l-47 0 l-47 0 l0 -16 l0 -15 l-94 0 l-94 0 ZM500 82 l0 15 l0 16 l31 0 l31 0 l0 15 l0 16 l16 0 l16 0 l0 16 l0 15 l15 0 l16 0 l0 31 l0 32 l16 0 l15 0 l0 109 l0 109 l-15 0 l-16 0 l0 16 l0 16 l-16 0 l-15 0 l0 -16 l0 -16 l-16 0 l-16 0 l0 -15 l0 -16 l-31 0 l-31 0 l0 16 l0 15 l-16 0 l-15 0 l0 16 l0 16 l15 0 l16 0 l0 15 l0 16 l16 0 l15 0 l0 16 l0 15 l16 0 l15 0 l0 16 l0 16 l-31 0 l-31 0 l0 15 l0 16 l-94 0 l-94 0 l0 -16 l0 -15 l-31 0 l-31 0 l0 -16 l0 -16 l-16 0 l-15 0 l0 -15 l0 -16 l-16 0 l-15 0 l0 -31 l0 -32 l-16 0 l-16 0 l0 -109 l0 -109 l16 0 l16 0 l0 -32 l0 -31 l15 0 l16 0 l0 -15 l0 -16 l15 0 l16 0 l0 -16 l0 -15 l31 0 l31 0 l0 -16 l0 -15 l94 0 l94 0 Z"></path></symbol><symbol id="R" viewBox="0 -232 1000 1000"><path d="M94 -12 l0 359 l0 359 l47 0 l47 0 l0 -156 l0 -156 l140 0 l141 0 l0 16 l0 15 l15 0 l16 0 l0 16 l0 15 l16 0 l15 0 l0 110 l0 109 l16 0 l15 0 l0 16 l0 15 l47 0 l47 0 l0 -31 l0 -31 l-15 0 l-16 0 l0 -109 l0 -110 l-16 0 l-15 0 l0 -31 l0 -31 l-16 0 l-16 0 l0 -16 l0 -15 l16 0 l16 0 l0 -32 l0 -31 l15 0 l16 0 l0 -78 l0 -78 l-16 0 l-15 0 l0 -31 l0 -32 l-16 0 l-16 0 l0 -15 l0 -16 l-31 0 l-31 0 l0 -16 l0 -15 l-203 0 l-203 0 ZM500 82 l0 15 l0 16 l16 0 l15 0 l0 62 l0 63 l-15 0 l-16 0 l0 15 l0 16 l-16 0 l-15 0 l0 16 l0 15 l-141 0 l-140 0 l0 -109 l0 -109 l156 0 l156 0 Z"></path></symbol><symbol id="S" viewBox="0 -232 1000 1000"><path d="M188 -12 l0 15 l0 16 l-32 0 l-31 0 l0 16 l0 15 l-16 0 l-15 0 l0 32 l0 31 l-16 0 l-16 0 l0 62 l0 63 l16 0 l16 0 l0 31 l0 31 l15 0 l16 0 l0 16 l0 16 l31 0 l32 0 l0 15 l0 16 l62 0 l62 0 l0 15 l0 16 l79 0 l78 0 l0 16 l0 15 l15 0 l16 0 l0 16 l0 15 l16 0 l15 0 l0 47 l0 47 l-15 0 l-16 0 l0 16 l0 16 l-16 0 l-15 0 l0 15 l0 16 l-125 0 l-125 0 l0 -16 l0 -15 l-31 0 l-32 0 l0 -32 l0 -31 l-15 0 l-16 0 l0 -16 l0 -15 l-47 0 l-47 0 l0 31 l0 31 l16 0 l15 0 l0 32 l0 31 l16 0 l16 0 l0 15 l0 16 l15 0 l16 0 l0 16 l0 15 l31 0 l32 0 l0 16 l0 15 l156 0 l156 0 l0 -15 l0 -16 l31 0 l31 0 l0 -15 l0 -16 l16 0 l16 0 l0 -31 l0 -31 l15 0 l16 0 l0 -79 l0 -78 l-16 0 l-15 0 l0 -31 l0 -31 l-16 0 l-16 0 l0 -16 l0 -15 l-31 0 l-31 0 l0 -16 l0 -16 l-78 0 l-78 0 l0 -15 l0 -16 l-63 0 l-62 0 l0 -16 l0 -15 l-16 0 l-15 0 l0 -16 l0 -16 l-16 0 l-16 0 l0 -31 l0 -31 l16 0 l16 0 l0 -16 l0 -15 l15 0 l16 0 l0 -16 l0 -15 l109 0 l110 0 l0 15 l0 16 l15 0 l16 0 l0 15 l0 16 l15 0 l16 0 l0 16 l0 15 l47 0 l47 0 l0 -31 l0 -31 l-16 0 l-16 0 l0 -31 l0 -32 l-15 0 l-16 0 l0 -15 l0 -16 l-31 0 l-31 0 l0 -16 l0 -15 l-141 0 l-140 0 Z"></path></symbol><symbol id="T" viewBox="0 -232 1000 1000"><path d="M31 -12 l0 47 l0 47 l125 0 l125 0 l0 312 l0 312 l47 0 l47 0 l0 -312 l0 -312 l125 0 l125 0 l0 -47 l0 -47 l-297 0 l-297 0 Z"></path></symbol><symbol id="U" viewBox="0 -232 1000 1000"><path d="M94 -12 l0 281 l0 281 l15 0 l16 0 l0 32 l0 31 l16 0 l15 0 l0 15 l0 16 l16 0 l16 0 l0 16 l0 15 l31 0 l31 0 l0 16 l0 15 l125 0 l125 0 l0 -15 l0 -16 l31 0 l31 0 l0 -15 l0 -16 l16 0 l16 0 l0 -16 l0 -15 l15 0 l16 0 l0 -31 l0 -32 l16 0 l15 0 l0 -281 l0 -281 l-47 0 l-47 0 l0 265 l0 266 l-15 0 l-16 0 l0 31 l0 32 l-31 0 l-31 0 l0 15 l0 16 l-94 0 l-94 0 l0 -16 l0 -15 l-31 0 l-31 0 l0 -32 l0 -31 l-16 0 l-15 0 l0 -266 l0 -265 l-47 0 l-47 0 Z"></path></symbol><symbol id="V" viewBox="0 -232 1000 1000"><path d="M31 -12 l0 31 l0 31 l16 0 l15 0 l0 47 l0 47 l16 0 l16 0 l0 31 l0 31 l15 0 l16 0 l0 47 l0 47 l16 0 l15 0 l0 47 l0 47 l16 0 l16 0 l0 31 l0 31 l15 0 l16 0 l0 47 l0 47 l15 0 l16 0 l0 47 l0 47 l16 0 l15 0 l0 31 l0 31 l78 0 l79 0 l0 -31 l0 -31 l15 0 l16 0 l0 -47 l0 -47 l15 0 l16 0 l0 -47 l0 -47 l16 0 l15 0 l0 -31 l0 -31 l16 0 l15 0 l0 -47 l0 -47 l16 0 l16 0 l0 -47 l0 -47 l15 0 l16 0 l0 -31 l0 -31 l16 0 l15 0 l0 -47 l0 -47 l16 0 l16 0 l0 -31 l0 -31 l-47 0 l-47 0 l0 15 l0 16 l-16 0 l-16 0 l0 47 l0 47 l-15 0 l-16 0 l0 31 l0 31 l-15 0 l-16 0 l0 47 l0 47 l-16 0 l-15 0 l0 47 l0 47 l-16 0 l-15 0 l0 31 l0 31 l-16 0 l-16 0 l0 47 l0 47 l-15 0 l-16 0 l0 31 l0 32 l-16 0 l-15 0 l0 -32 l0 -31 l-16 0 l-16 0 l0 -47 l0 -47 l-15 0 l-16 0 l0 -31 l0 -31 l-15 0 l-16 0 l0 -47 l0 -47 l-16 0 l-15 0 l0 -47 l0 -47 l-16 0 l-15 0 l0 -31 l0 -31 l-16 0 l-16 0 l0 -47 l0 -47 l-15 0 l-16 0 l0 -16 l0 -15 l-47 0 l-47 0 Z"></path></symbol><symbol id="W" viewBox="0 -232 1000 1000"><path d="M31 -12 l0 62 l0 63 l16 0 l15 0 l0 47 l0 46 l16 0 l16 0 l0 47 l0 47 l15 0 l16 0 l0 47 l0 47 l16 0 l15 0 l0 47 l0 47 l16 0 l16 0 l0 47 l0 47 l15 0 l16 0 l0 62 l0 62 l62 0 l63 0 l0 -62 l0 -62 l15 0 l16 0 l0 -47 l0 -47 l16 0 l15 0 l0 -47 l0 -47 l16 0 l16 0 l0 -47 l0 -47 l15 0 l16 0 l0 -47 l0 -47 l31 0 l31 0 l0 47 l0 47 l16 0 l15 0 l0 47 l0 47 l16 0 l16 0 l0 47 l0 47 l15 0 l16 0 l0 47 l0 47 l16 0 l15 0 l0 62 l0 62 l63 0 l62 0 l0 -62 l0 -62 l16 0 l15 0 l0 -47 l0 -47 l16 0 l16 0 l0 -47 l0 -47 l15 0 l16 0 l0 -47 l0 -47 l16 0 l15 0 l0 -47 l0 -47 l16 0 l16 0 l0 -46 l0 -47 l15 0 l16 0 l0 -63 l0 -62 l-47 0 l-47 0 l0 47 l0 47 l-16 0 l-15 0 l0 46 l0 47 l-16 0 l-16 0 l0 47 l0 47 l-15 0 l-16 0 l0 47 l0 47 l-15 0 l-16 0 l0 47 l0 46 l-31 0 l-31 0 l0 -46 l0 -47 l-16 0 l-16 0 l0 -47 l0 -47 l-15 0 l-16 0 l0 -47 l0 -47 l-16 0 l-15 0 l0 -47 l0 -46 l-16 0 l-16 0 l0 -47 l0 -47 l-62 0 l-62 0 l0 47 l0 47 l-16 0 l-16 0 l0 46 l0 47 l-15 0 l-16 0 l0 47 l0 47 l-16 0 l-15 0 l0 47 l0 47 l-16 0 l-16 0 l0 47 l0 46 l-31 0 l-31 0 l0 -46 l0 -47 l-16 0 l-15 0 l0 -47 l0 -47 l-16 0 l-15 0 l0 -47 l0 -47 l-16 0 l-16 0 l0 -47 l0 -46 l-15 0 l-16 0 l0 -47 l0 -47 l-47 0 l-47 0 Z"></path></symbol><symbol id="X" viewBox="0 -232 1000 1000"><path d="M62 -12 l0 31 l0 31 l16 0 l16 0 l0 32 l0 31 l15 0 l16 0 l0 15 l0 16 l16 0 l15 0 l0 16 l0 15 l16 0 l16 0 l0 31 l0 32 l15 0 l16 0 l0 15 l0 16 l15 0 l16 0 l0 16 l0 15 l16 0 l15 0 l0 32 l0 31 l-15 0 l-16 0 l0 15 l0 16 l-16 0 l-15 0 l0 31 l0 31 l-16 0 l-15 0 l0 16 l0 16 l-16 0 l-16 0 l0 15 l0 16 l-15 0 l-16 0 l0 31 l0 32 l-16 0 l-15 0 l0 15 l0 16 l-16 0 l-16 0 l0 15 l0 16 l-15 0 l-16 0 l0 31 l0 31 l47 0 l47 0 l0 -15 l0 -16 l16 0 l15 0 l0 -15 l0 -16 l16 0 l16 0 l0 -16 l0 -15 l15 0 l16 0 l0 -31 l0 -32 l15 0 l16 0 l0 -15 l0 -16 l16 0 l15 0 l0 -16 l0 -15 l16 0 l15 0 l0 -32 l0 -31 l32 0 l31 0 l0 31 l0 32 l16 0 l15 0 l0 15 l0 16 l16 0 l16 0 l0 16 l0 15 l15 0 l16 0 l0 32 l0 31 l15 0 l16 0 l0 15 l0 16 l16 0 l15 0 l0 16 l0 15 l16 0 l15 0 l0 16 l0 15 l47 0 l47 0 l0 -31 l0 -31 l-15 0 l-16 0 l0 -16 l0 -15 l-16 0 l-15 0 l0 -16 l0 -15 l-16 0 l-16 0 l0 -32 l0 -31 l-15 0 l-16 0 l0 -16 l0 -15 l-15 0 l-16 0 l0 -16 l0 -16 l-16 0 l-15 0 l0 -31 l0 -31 l-16 0 l-15 0 l0 -16 l0 -15 l-16 0 l-16 0 l0 -31 l0 -32 l16 0 l16 0 l0 -15 l0 -16 l15 0 l16 0 l0 -16 l0 -15 l15 0 l16 0 l0 -32 l0 -31 l16 0 l15 0 l0 -15 l0 -16 l16 0 l15 0 l0 -16 l0 -15 l16 0 l16 0 l0 -31 l0 -32 l15 0 l16 0 l0 -31 l0 -31 l-47 0 l-47 0 l0 15 l0 16 l-15 0 l-16 0 l0 31 l0 32 l-16 0 l-15 0 l0 15 l0 16 l-16 0 l-15 0 l0 15 l0 16 l-16 0 l-16 0 l0 31 l0 31 l-15 0 l-16 0 l0 16 l0 16 l-31 0 l-32 0 l0 -16 l0 -16 l-15 0 l-16 0 l0 -31 l0 -31 l-15 0 l-16 0 l0 -16 l0 -15 l-16 0 l-15 0 l0 -16 l0 -15 l-16 0 l-15 0 l0 -32 l0 -31 l-16 0 l-16 0 l0 -16 l0 -15 l-47 0 l-47 0 Z"></path></symbol><symbol id="Y" viewBox="0 -232 1000 1000"><path d="M31 -12 l0 31 l0 31 l16 0 l15 0 l0 16 l0 16 l16 0 l16 0 l0 15 l0 16 l15 0 l16 0 l0 31 l0 31 l16 0 l15 0 l0 16 l0 15 l16 0 l16 0 l0 16 l0 16 l15 0 l16 0 l0 31 l0 31 l15 0 l16 0 l0 16 l0 16 l16 0 l15 0 l0 15 l0 16 l16 0 l15 0 l0 172 l0 171 l47 0 l47 0 l0 -171 l0 -172 l16 0 l16 0 l0 -16 l0 -15 l15 0 l16 0 l0 -16 l0 -16 l15 0 l16 0 l0 -31 l0 -31 l16 0 l15 0 l0 -16 l0 -16 l16 0 l15 0 l0 -15 l0 -16 l16 0 l16 0 l0 -31 l0 -31 l15 0 l16 0 l0 -16 l0 -15 l16 0 l15 0 l0 -16 l0 -16 l16 0 l16 0 l0 -31 l0 -31 l-47 0 l-47 0 l0 15 l0 16 l-16 0 l-16 0 l0 16 l0 15 l-15 0 l-16 0 l0 16 l0 16 l-15 0 l-16 0 l0 31 l0 31 l-16 0 l-15 0 l0 16 l0 15 l-16 0 l-15 0 l0 16 l0 15 l-16 0 l-16 0 l0 32 l0 31 l-15 0 l-16 0 l0 16 l0 15 l-16 0 l-15 0 l0 -15 l0 -16 l-16 0 l-16 0 l0 -31 l0 -32 l-15 0 l-16 0 l0 -15 l0 -16 l-15 0 l-16 0 l0 -15 l0 -16 l-16 0 l-15 0 l0 -31 l0 -31 l-16 0 l-15 0 l0 -16 l0 -16 l-16 0 l-16 0 l0 -15 l0 -16 l-15 0 l-16 0 l0 -16 l0 -15 l-47 0 l-47 0 Z"></path></symbol><symbol id="Z" viewBox="0 -232 1000 1000"><path d="M62 -12 l0 47 l0 47 l204 0 l203 0 l0 15 l0 16 l-16 0 l-15 0 l0 15 l0 16 l-16 0 l-16 0 l0 16 l0 15 l-15 0 l-16 0 l0 16 l0 15 l-16 0 l-15 0 l0 16 l0 16 l-16 0 l-16 0 l0 31 l0 31 l-15 0 l-16 0 l0 16 l0 16 l-15 0 l-16 0 l0 15 l0 16 l-16 0 l-15 0 l0 15 l0 16 l-16 0 l-15 0 l0 31 l0 31 l-16 0 l-16 0 l0 16 l0 16 l-15 0 l-16 0 l0 15 l0 16 l-16 0 l-15 0 l0 16 l0 15 l-16 0 l-16 0 l0 16 l0 16 l-15 0 l-16 0 l0 62 l0 62 l297 0 l297 0 l0 -46 l0 -47 l-234 0 l-235 0 l0 -16 l0 -15 l16 0 l16 0 l0 -16 l0 -16 l15 0 l16 0 l0 -15 l0 -16 l15 0 l16 0 l0 -16 l0 -15 l16 0 l15 0 l0 -32 l0 -31 l16 0 l15 0 l0 -15 l0 -16 l16 0 l16 0 l0 -16 l0 -15 l15 0 l16 0 l0 -16 l0 -15 l16 0 l15 0 l0 -32 l0 -31 l16 0 l16 0 l0 -16 l0 -15 l15 0 l16 0 l0 -16 l0 -16 l15 0 l16 0 l0 -15 l0 -16 l16 0 l15 0 l0 -15 l0 -16 l16 0 l15 0 l0 -16 l0 -15 l16 0 l16 0 l0 -63 l0 -62 l-266 0 l-266 0 Z"></path></symbol><symbol id="bracketleft" viewBox="0 -232 1000 1000"><path d="M62 -231 l0 468 l0 469 l94 0 l94 0 l0 -47 l0 -46 l-47 0 l-47 0 l0 -376 l0 -374 l47 0 l47 0 l0 -47 l0 -47 l-94 0 l-94 0 Z"></path></symbol><symbol id="backslash" viewBox="0 -232 1000 1000"><path d="M0 -12 l0 47 l0 47 l16 0 l15 0 l0 62 l0 62 l16 0 l15 0 l0 47 l0 47 l16 0 l16 0 l0 63 l0 62 l15 0 l16 0 l0 47 l0 47 l16 0 l15 0 l0 47 l0 47 l16 0 l16 0 l0 47 l0 46 l46 0 l47 0 l0 -46 l0 -47 l-15 0 l-16 0 l0 -47 l0 -47 l-16 0 l-15 0 l0 -47 l0 -47 l-16 0 l-15 0 l0 -62 l0 -63 l-16 0 l-16 0 l0 -47 l0 -47 l-15 0 l-16 0 l0 -62 l0 -62 l-16 0 l-15 0 l0 -47 l0 -47 l-47 0 l-47 0 Z"></path></symbol><symbol id="bracketright" viewBox="0 -232 1000 1000"><path d="M31 -231 l0 47 l0 47 l47 0 l47 0 l0 374 l0 376 l-47 0 l-47 0 l0 46 l0 47 l94 0 l94 0 l0 -469 l0 -468 l-94 0 l-94 0 Z"></path></symbol><symbol id="asciicircum" viewBox="0 -232 1000 1000"><path d="M156 550 l0 15 l0 16 l-15 0 l-16 0 l0 16 l0 15 l-16 0 l-15 0 l0 16 l0 16 l-16 0 l-16 0 l0 15 l0 16 l-15 0 l-16 0 l0 15 l0 16 l31 0 l32 0 l0 -16 l0 -15 l31 0 l31 0 l0 -16 l0 -15 l32 0 l31 0 l0 -16 l0 -16 l15 0 l16 0 l0 16 l0 16 l31 0 l31 0 l0 15 l0 16 l32 0 l31 0 l0 15 l0 16 l31 0 l32 0 l0 -16 l0 -15 l-16 0 l-16 0 l0 -16 l0 -15 l-15 0 l-16 0 l0 -16 l0 -16 l-16 0 l-15 0 l0 -15 l0 -16 l-16 0 l-16 0 l0 -16 l0 -15 l-78 0 l-78 0 Z"></path></symbol><symbol id="underscore" viewBox="0 -232 1000 1000"><path d="M0 -106 l0 31 l0 31 l281 0 l281 0 l0 -31 l0 -31 l-281 0 l-281 0 Z"></path></symbol><symbol id="grave" viewBox="0 -232 1000 1000"><path d="M62 581 l0 15 l0 16 l32 0 l31 0 l0 16 l0 15 l31 0 l32 0 l0 16 l0 16 l31 0 l31 0 l0 15 l0 16 l16 0 l15 0 l0 -31 l0 -32 l-15 0 l-16 0 l0 -15 l0 -16 l-16 0 l-15 0 l0 -16 l0 -15 l-78 0 l-79 0 Z"></path></symbol><symbol id="a" viewBox="0 -232 1000 1000"><path d="M156 -12 l0 16 l0 16 l-31 0 l-31 0 l0 31 l0 31 l-16 0 l-16 0 l0 16 l0 16 l47 0 l47 0 l0 -16 l0 -16 l16 0 l16 0 l0 -15 l0 -16 l93 0 l94 0 l0 16 l0 15 l16 0 l15 0 l0 32 l0 31 l-15 0 l-16 0 l0 15 l0 16 l-109 0 l-110 0 l0 16 l0 15 l-31 0 l-31 0 l0 16 l0 15 l-16 0 l-16 0 l0 32 l0 31 l-15 0 l-16 0 l0 47 l0 47 l16 0 l15 0 l0 31 l0 31 l32 0 l31 0 l0 16 l0 15 l109 0 l110 0 l0 -15 l0 -16 l31 0 l31 0 l0 -15 l0 -16 l16 0 l16 0 l0 16 l0 15 l15 0 l16 0 l0 16 l0 15 l47 0 l46 0 l0 -31 l0 -31 l-15 0 l-16 0 l0 -16 l0 -15 l-15 0 l-16 0 l0 -157 l0 -156 l-16 0 l-15 0 l0 -31 l0 -31 l-31 0 l-32 0 l0 -16 l0 -16 l-125 0 l-125 0 ZM406 207 l0 78 l0 79 l-15 0 l-16 0 l0 15 l0 16 l-16 0 l-15 0 l0 15 l0 16 l-94 0 l-94 0 l0 -16 l0 -15 l-15 0 l-16 0 l0 -47 l0 -47 l16 0 l15 0 l0 -16 l0 -15 l16 0 l16 0 l0 -16 l0 -16 l93 0 l94 0 l0 -15 l0 -16 l16 0 l15 0 Z"></path></symbol><symbol id="b" viewBox="0 -232 1000 1000"><path d="M62 -12 l0 359 l0 359 l47 0 l47 0 l0 -15 l0 -16 l32 0 l31 0 l0 16 l0 15 l93 0 l94 0 l0 -15 l0 -16 l32 0 l31 0 l0 -15 l0 -16 l15 0 l16 0 l0 -31 l0 -31 l16 0 l15 0 l0 -126 l0 -124 l-15 0 l-16 0 l0 -32 l0 -31 l-16 0 l-15 0 l0 -16 l0 -15 l-31 0 l-32 0 l0 -16 l0 -16 l-94 0 l-93 0 l0 16 l0 16 l-31 0 l-32 0 l0 -125 l0 -125 l-47 0 l-47 0 ZM344 269 l0 16 l0 15 l31 0 l31 0 l0 32 l0 31 l16 0 l16 0 l0 93 l0 94 l-16 0 l-16 0 l0 32 l0 31 l-31 0 l-31 0 l0 15 l0 16 l-47 0 l-47 0 l0 -16 l0 -15 l-31 0 l-31 0 l0 -31 l0 -32 l-16 0 l-16 0 l0 -94 l0 -93 l16 0 l16 0 l0 -31 l0 -32 l31 0 l31 0 l0 -15 l0 -16 l47 0 l47 0 Z"></path></symbol><symbol id="c" viewBox="0 -232 1000 1000"><path d="M156 -12 l0 16 l0 16 l-31 0 l-31 0 l0 15 l0 16 l-16 0 l-16 0 l0 31 l0 32 l-15 0 l-16 0 l0 124 l0 126 l16 0 l15 0 l0 31 l0 31 l16 0 l16 0 l0 16 l0 15 l31 0 l31 0 l0 16 l0 15 l125 0 l125 0 l0 -15 l0 -16 l32 0 l31 0 l0 -15 l0 -16 l15 0 l16 0 l0 -47 l0 -47 l-47 0 l-47 0 l0 32 l0 31 l-31 0 l-31 0 l0 15 l0 16 l-63 0 l-62 0 l0 -16 l0 -15 l-31 0 l-32 0 l0 -31 l0 -32 l-15 0 l-16 0 l0 -94 l0 -93 l16 0 l15 0 l0 -31 l0 -32 l32 0 l31 0 l0 -15 l0 -16 l62 0 l63 0 l0 16 l0 15 l31 0 l31 0 l0 32 l0 31 l47 0 l47 0 l0 -47 l0 -47 l-16 0 l-15 0 l0 -16 l0 -15 l-31 0 l-32 0 l0 -16 l0 -16 l-125 0 l-125 0 Z"></path></symbol><symbol id="d" viewBox="0 -232 1000 1000"><path d="M406 -12 l0 125 l0 125 l-31 0 l-31 0 l0 -16 l0 -16 l-94 0 l-94 0 l0 16 l0 16 l-31 0 l-31 0 l0 15 l0 16 l-16 0 l-16 0 l0 31 l0 32 l-15 0 l-16 0 l0 124 l0 126 l16 0 l15 0 l0 31 l0 31 l16 0 l16 0 l0 16 l0 15 l31 0 l31 0 l0 16 l0 15 l94 0 l94 0 l0 -15 l0 -16 l31 0 l31 0 l0 16 l0 15 l47 0 l47 0 l0 -359 l0 -359 l-47 0 l-47 0 ZM312 269 l0 16 l0 15 l32 0 l31 0 l0 32 l0 31 l16 0 l15 0 l0 93 l0 94 l-15 0 l-16 0 l0 32 l0 31 l-31 0 l-32 0 l0 15 l0 16 l-46 0 l-47 0 l0 -16 l0 -15 l-31 0 l-32 0 l0 -31 l0 -32 l-15 0 l-16 0 l0 -94 l0 -93 l16 0 l15 0 l0 -31 l0 -32 l32 0 l31 0 l0 -15 l0 -16 l47 0 l46 0 Z"></path></symbol><symbol id="e" viewBox="0 -232 1000 1000"><path d="M156 -12 l0 16 l0 16 l-31 0 l-31 0 l0 15 l0 16 l-16 0 l-16 0 l0 31 l0 32 l-15 0 l-16 0 l0 124 l0 126 l16 0 l15 0 l0 31 l0 31 l16 0 l16 0 l0 16 l0 15 l31 0 l31 0 l0 16 l0 15 l110 0 l109 0 l0 -15 l0 -16 l31 0 l32 0 l0 -15 l0 -16 l15 0 l16 0 l0 -31 l0 -31 l15 0 l16 0 l0 -16 l0 -16 l-62 0 l-63 0 l0 32 l0 31 l-31 0 l-32 0 l0 15 l0 16 l-46 0 l-47 0 l0 -16 l0 -15 l-31 0 l-32 0 l0 -31 l0 -32 l-15 0 l-16 0 l0 -47 l0 -47 l187 0 l188 0 l0 -62 l0 -62 l-16 0 l-15 0 l0 -32 l0 -31 l-16 0 l-15 0 l0 -16 l0 -15 l-32 0 l-31 0 l0 -16 l0 -16 l-109 0 l-110 0 ZM312 51 l0 16 l0 15 l32 0 l31 0 l0 32 l0 31 l16 0 l15 0 l0 15 l0 16 l-140 0 l-141 0 l0 -16 l0 -15 l16 0 l15 0 l0 -31 l0 -32 l32 0 l31 0 l0 -15 l0 -16 l47 0 l46 0 Z"></path></symbol><symbol id="f" viewBox="0 -232 1000 1000"><path d="M188 -12 l0 15 l0 16 l-32 0 l-31 0 l0 31 l0 32 l-16 0 l-15 0 l0 62 l0 62 l-47 0 l-47 0 l0 32 l0 31 l47 0 l47 0 l0 219 l0 218 l47 0 l47 0 l0 -218 l0 -219 l46 0 l47 0 l0 -31 l0 -32 l-47 0 l-46 0 l0 -62 l0 -62 l15 0 l16 0 l0 -16 l0 -16 l31 0 l31 0 l0 -31 l0 -31 l-47 0 l-46 0 Z"></path></symbol><symbol id="g" viewBox="0 -232 1000 1000"><path d="M156 -231 l0 16 l0 16 l-31 0 l-31 0 l0 15 l0 16 l-16 0 l-16 0 l0 31 l0 32 l-15 0 l-16 0 l0 124 l0 126 l16 0 l15 0 l0 31 l0 31 l16 0 l16 0 l0 16 l0 15 l31 0 l31 0 l0 16 l0 15 l94 0 l94 0 l0 -15 l0 -16 l31 0 l31 0 l0 47 l0 47 l-15 0 l-16 0 l0 31 l0 32 l-31 0 l-32 0 l0 15 l0 16 l-46 0 l-47 0 l0 -16 l0 -15 l-31 0 l-32 0 l0 -32 l0 -31 l-47 0 l-47 0 l0 31 l0 32 l16 0 l16 0 l0 15 l0 16 l15 0 l16 0 l0 15 l0 16 l31 0 l32 0 l0 16 l0 15 l78 0 l78 0 l0 -15 l0 -16 l31 0 l31 0 l0 -16 l0 -15 l16 0 l16 0 l0 -16 l0 -15 l15 0 l16 0 l0 -32 l0 -31 l15 0 l16 0 l0 -281 l0 -282 l-47 0 l-47 0 l0 16 l0 16 l-31 0 l-31 0 l0 -16 l0 -16 l-94 0 l-94 0 ZM312 -168 l0 16 l0 15 l32 0 l31 0 l0 32 l0 31 l16 0 l15 0 l0 93 l0 94 l-15 0 l-16 0 l0 32 l0 31 l-31 0 l-32 0 l0 15 l0 16 l-46 0 l-47 0 l0 -16 l0 -15 l-31 0 l-32 0 l0 -31 l0 -32 l-15 0 l-16 0 l0 -94 l0 -93 l16 0 l15 0 l0 -31 l0 -32 l32 0 l31 0 l0 -15 l0 -16 l47 0 l46 0 Z"></path></symbol><symbol id="h" viewBox="0 -232 1000 1000"><path d="M62 -12 l0 359 l0 359 l47 0 l47 0 l0 -187 l0 -187 l16 0 l16 0 l0 -16 l0 -16 l15 0 l16 0 l0 -15 l0 -16 l62 0 l63 0 l0 16 l0 15 l15 0 l16 0 l0 16 l0 16 l16 0 l15 0 l0 187 l0 187 l47 0 l47 0 l0 -203 l0 -203 l-16 0 l-15 0 l0 -31 l0 -31 l-31 0 l-32 0 l0 -16 l0 -16 l-94 0 l-93 0 l0 16 l0 16 l-16 0 l-15 0 l0 15 l0 16 l-16 0 l-16 0 l0 -141 l0 -140 l-47 0 l-47 0 Z"></path></symbol><symbol id="i" viewBox="0 -232 1000 1000"><path d="M62 206 l0 250 l0 250 l47 0 l47 0 l0 -250 l0 -250 l-47 0 l-47 0 ZM62 -12 l0 47 l0 47 l47 0 l47 0 l0 -47 l0 -47 l-47 0 l-47 0 Z"></path></symbol><symbol id="j" viewBox="0 -232 1000 1000"><path d="M62 -13 l0 313 l0 313 l-15 0 l-16 0 l0 15 l0 16 l-15 0 l-16 0 l0 31 l0 31 l47 0 l47 0 l0 -15 l0 -16 l15 0 l16 0 l0 -16 l0 -15 l16 0 l15 0 l0 -328 l0 -329 l-47 0 l-47 0 ZM62 -231 l0 47 l0 47 l47 0 l47 0 l0 -47 l0 -47 l-47 0 l-47 0 Z"></path></symbol><symbol id="k" viewBox="0 -232 1000 1000"><path d="M62 -12 l0 359 l0 359 l47 0 l47 0 l0 -109 l0 -109 l16 0 l16 0 l0 -16 l0 -16 l15 0 l16 0 l0 16 l0 16 l15 0 l16 0 l0 15 l0 16 l16 0 l15 0 l0 31 l0 32 l16 0 l15 0 l0 15 l0 16 l16 0 l16 0 l0 15 l0 16 l15 0 l16 0 l0 31 l0 31 l63 0 l62 0 l0 -15 l0 -16 l-16 0 l-15 0 l0 -31 l0 -31 l-16 0 l-15 0 l0 -16 l0 -15 l-16 0 l-16 0 l0 -16 l0 -16 l-15 0 l-16 0 l0 -31 l0 -31 l-16 0 l-15 0 l0 -16 l0 -16 l-16 0 l-16 0 l0 -15 l0 -16 l-15 0 l-16 0 l0 -31 l0 -31 l16 0 l15 0 l0 -16 l0 -15 l16 0 l16 0 l0 -16 l0 -16 l15 0 l16 0 l0 -15 l0 -16 l16 0 l15 0 l0 -16 l0 -15 l16 0 l16 0 l0 -16 l0 -16 l-47 0 l-47 0 l0 16 l0 16 l-16 0 l-16 0 l0 15 l0 16 l-15 0 l-16 0 l0 16 l0 15 l-15 0 l-16 0 l0 16 l0 16 l-16 0 l-15 0 l0 15 l0 16 l-16 0 l-15 0 l0 15 l0 16 l-16 0 l-16 0 l0 -203 l0 -203 l-47 0 l-47 0 Z"></path></symbol><symbol id="l" viewBox="0 -232 1000 1000"><path d="M62 -12 l0 359 l0 359 l47 0 l47 0 l0 -359 l0 -359 l-47 0 l-47 0 Z"></path></symbol><symbol id="m" viewBox="0 -232 1000 1000"><path d="M62 -12 l0 250 l0 250 l47 0 l47 0 l0 -187 l0 -187 l16 0 l16 0 l0 -16 l0 -16 l15 0 l16 0 l0 -15 l0 -16 l47 0 l46 0 l0 16 l0 15 l16 0 l16 0 l0 16 l0 16 l15 0 l16 0 l0 187 l0 187 l47 0 l47 0 l0 -187 l0 -187 l15 0 l16 0 l0 -16 l0 -16 l16 0 l15 0 l0 -15 l0 -16 l47 0 l47 0 l0 16 l0 15 l16 0 l15 0 l0 16 l0 16 l16 0 l16 0 l0 187 l0 187 l46 0 l47 0 l0 -203 l0 -203 l-15 0 l-16 0 l0 -31 l0 -31 l-31 0 l-31 0 l0 -16 l0 -16 l-79 0 l-78 0 l0 16 l0 16 l-15 0 l-16 0 l0 15 l0 16 l-16 0 l-15 0 l0 16 l0 15 l-16 0 l-15 0 l0 -31 l0 -31 l-32 0 l-31 0 l0 -16 l0 -16 l-78 0 l-78 0 l0 16 l0 16 l-16 0 l-15 0 l0 15 l0 16 l-16 0 l-16 0 l0 -31 l0 -32 l-47 0 l-47 0 Z"></path></symbol><symbol id="n" viewBox="0 -232 1000 1000"><path d="M62 -12 l0 250 l0 250 l47 0 l47 0 l0 -187 l0 -187 l16 0 l16 0 l0 -16 l0 -16 l15 0 l16 0 l0 -15 l0 -16 l62 0 l63 0 l0 16 l0 15 l15 0 l16 0 l0 16 l0 16 l16 0 l15 0 l0 187 l0 187 l47 0 l47 0 l0 -203 l0 -203 l-16 0 l-15 0 l0 -31 l0 -31 l-31 0 l-32 0 l0 -16 l0 -16 l-94 0 l-93 0 l0 16 l0 16 l-16 0 l-15 0 l0 15 l0 16 l-16 0 l-16 0 l0 -31 l0 -32 l-47 0 l-47 0 Z"></path></symbol><symbol id="o" viewBox="0 -232 1000 1000"><path d="M156 -12 l0 16 l0 16 l-31 0 l-31 0 l0 15 l0 16 l-16 0 l-16 0 l0 31 l0 32 l-15 0 l-16 0 l0 124 l0 126 l16 0 l15 0 l0 31 l0 31 l16 0 l16 0 l0 16 l0 15 l31 0 l31 0 l0 16 l0 15 l125 0 l125 0 l0 -15 l0 -16 l32 0 l31 0 l0 -15 l0 -16 l15 0 l16 0 l0 -31 l0 -31 l16 0 l15 0 l0 -126 l0 -124 l-15 0 l-16 0 l0 -32 l0 -31 l-16 0 l-15 0 l0 -16 l0 -15 l-31 0 l-32 0 l0 -16 l0 -16 l-125 0 l-125 0 ZM344 51 l0 16 l0 15 l31 0 l31 0 l0 32 l0 31 l16 0 l16 0 l0 93 l0 94 l-16 0 l-16 0 l0 32 l0 31 l-31 0 l-31 0 l0 15 l0 16 l-63 0 l-62 0 l0 -16 l0 -15 l-31 0 l-32 0 l0 -31 l0 -32 l-15 0 l-16 0 l0 -94 l0 -93 l16 0 l15 0 l0 -31 l0 -32 l32 0 l31 0 l0 -15 l0 -16 l62 0 l63 0 Z"></path></symbol><symbol id="p" viewBox="0 -232 1000 1000"><path d="M62 -200 l0 344 l0 344 l47 0 l47 0 l0 -109 l0 -110 l32 0 l31 0 l0 16 l0 15 l93 0 l94 0 l0 -15 l0 -16 l32 0 l31 0 l0 -15 l0 -16 l15 0 l16 0 l0 -31 l0 -31 l16 0 l15 0 l0 -126 l0 -124 l-15 0 l-16 0 l0 -32 l0 -31 l-16 0 l-15 0 l0 -16 l0 -15 l-31 0 l-32 0 l0 -16 l0 -16 l-94 0 l-93 0 l0 16 l0 16 l-31 0 l-32 0 l0 -16 l0 -16 l-47 0 l-47 0 ZM344 -137 l0 16 l0 15 l31 0 l31 0 l0 32 l0 31 l16 0 l16 0 l0 93 l0 94 l-16 0 l-16 0 l0 32 l0 31 l-31 0 l-31 0 l0 15 l0 16 l-47 0 l-47 0 l0 -16 l0 -15 l-31 0 l-31 0 l0 -31 l0 -32 l-16 0 l-16 0 l0 -94 l0 -93 l16 0 l16 0 l0 -31 l0 -32 l31 0 l31 0 l0 -15 l0 -16 l47 0 l47 0 Z"></path></symbol><symbol id="q" viewBox="0 -232 1000 1000"><path d="M156 -200 l0 16 l0 16 l-31 0 l-31 0 l0 15 l0 16 l-16 0 l-16 0 l0 31 l0 32 l-15 0 l-16 0 l0 124 l0 126 l16 0 l15 0 l0 31 l0 31 l16 0 l16 0 l0 16 l0 15 l31 0 l31 0 l0 16 l0 15 l94 0 l94 0 l0 -15 l0 -16 l31 0 l31 0 l0 110 l0 109 l47 0 l47 0 l0 -344 l0 -344 l-47 0 l-47 0 l0 16 l0 16 l-31 0 l-31 0 l0 -16 l0 -16 l-94 0 l-94 0 ZM312 -137 l0 16 l0 15 l32 0 l31 0 l0 32 l0 31 l16 0 l15 0 l0 93 l0 94 l-15 0 l-16 0 l0 32 l0 31 l-31 0 l-32 0 l0 15 l0 16 l-46 0 l-47 0 l0 -16 l0 -15 l-31 0 l-32 0 l0 -31 l0 -32 l-15 0 l-16 0 l0 -94 l0 -93 l16 0 l15 0 l0 -31 l0 -32 l32 0 l31 0 l0 -15 l0 -16 l47 0 l46 0 Z"></path></symbol><symbol id="r" viewBox="0 -232 1000 1000"><path d="M62 -12 l0 250 l0 250 l47 0 l47 0 l0 -187 l0 -187 l16 0 l16 0 l0 -16 l0 -16 l15 0 l16 0 l0 -15 l0 -16 l62 0 l63 0 l0 -31 l0 -32 l-63 0 l-62 0 l0 16 l0 16 l-16 0 l-15 0 l0 15 l0 16 l-16 0 l-16 0 l0 -31 l0 -32 l-47 0 l-47 0 Z"></path></symbol><symbol id="s" viewBox="0 -232 1000 1000"><path d="M125 -12 l0 16 l0 16 l-31 0 l-32 0 l0 31 l0 31 l-15 0 l-16 0 l0 47 l0 47 l16 0 l15 0 l0 31 l0 31 l32 0 l31 0 l0 16 l0 16 l109 0 l110 0 l0 15 l0 16 l15 0 l16 0 l0 47 l0 47 l-16 0 l-15 0 l0 15 l0 16 l-94 0 l-94 0 l0 -16 l0 -15 l-15 0 l-16 0 l0 -31 l0 -32 l-47 0 l-47 0 l0 32 l0 31 l16 0 l15 0 l0 31 l0 31 l32 0 l31 0 l0 16 l0 15 l125 0 l125 0 l0 -15 l0 -16 l31 0 l32 0 l0 -31 l0 -31 l15 0 l16 0 l0 -47 l0 -47 l-16 0 l-15 0 l0 -31 l0 -32 l-32 0 l-31 0 l0 -15 l0 -16 l-109 0 l-110 0 l0 -15 l0 -16 l-15 0 l-16 0 l0 -47 l0 -47 l16 0 l15 0 l0 -15 l0 -16 l78 0 l78 0 l0 16 l0 15 l16 0 l16 0 l0 16 l0 16 l47 0 l47 0 l0 -16 l0 -16 l-16 0 l-16 0 l0 -31 l0 -31 l-31 0 l-31 0 l0 -16 l0 -16 l-110 0 l-109 0 Z"></path></symbol><symbol id="t" viewBox="0 -232 1000 1000"><path d="M94 -12 l0 94 l0 93 l-47 0 l-47 0 l0 32 l0 31 l47 0 l47 0 l0 172 l0 172 l15 0 l16 0 l0 31 l0 31 l31 0 l32 0 l0 16 l0 15 l46 0 l47 0 l0 -31 l0 -31 l-31 0 l-31 0 l0 -16 l0 -15 l-16 0 l-15 0 l0 -172 l0 -172 l46 0 l47 0 l0 -31 l0 -32 l-47 0 l-46 0 l0 -93 l0 -94 l-47 0 l-47 0 Z"></path></symbol><symbol id="u" viewBox="0 -232 1000 1000"><path d="M62 -12 l0 204 l0 203 l16 0 l16 0 l0 31 l0 31 l31 0 l31 0 l0 16 l0 15 l94 0 l94 0 l0 -15 l0 -16 l15 0 l16 0 l0 -15 l0 -16 l16 0 l15 0 l0 31 l0 31 l47 0 l47 0 l0 -250 l0 -250 l-47 0 l-47 0 l0 188 l0 188 l-15 0 l-16 0 l0 15 l0 16 l-16 0 l-15 0 l0 15 l0 16 l-63 0 l-62 0 l0 -16 l0 -15 l-16 0 l-15 0 l0 -16 l0 -15 l-16 0 l-16 0 l0 -188 l0 -188 l-47 0 l-47 0 Z"></path></symbol><symbol id="v" viewBox="0 -232 1000 1000"><path d="M0 -12 l0 47 l0 47 l16 0 l15 0 l0 32 l0 31 l16 0 l15 0 l0 31 l0 31 l16 0 l16 0 l0 31 l0 32 l15 0 l16 0 l0 47 l0 47 l16 0 l15 0 l0 31 l0 31 l16 0 l16 0 l0 31 l0 31 l46 0 l47 0 l0 -31 l0 -31 l16 0 l15 0 l0 -31 l0 -31 l16 0 l16 0 l0 -47 l0 -47 l15 0 l16 0 l0 -32 l0 -31 l16 0 l15 0 l0 -31 l0 -31 l16 0 l16 0 l0 -31 l0 -32 l15 0 l16 0 l0 -47 l0 -47 l-47 0 l-47 0 l0 47 l0 47 l-16 0 l-15 0 l0 32 l0 31 l-16 0 l-16 0 l0 31 l0 31 l-15 0 l-16 0 l0 31 l0 32 l-15 0 l-16 0 l0 31 l0 31 l-16 0 l-15 0 l0 -31 l0 -31 l-16 0 l-15 0 l0 -32 l0 -31 l-16 0 l-16 0 l0 -31 l0 -31 l-15 0 l-16 0 l0 -31 l0 -32 l-16 0 l-15 0 l0 -47 l0 -47 l-47 0 l-47 0 Z"></path></symbol><symbol id="w" viewBox="0 -232 1000 1000"><path d="M0 -12 l0 47 l0 47 l16 0 l15 0 l0 32 l0 31 l16 0 l15 0 l0 47 l0 46 l16 0 l16 0 l0 47 l0 47 l15 0 l16 0 l0 32 l0 31 l16 0 l15 0 l0 47 l0 46 l47 0 l47 0 l0 -46 l0 -47 l16 0 l15 0 l0 -31 l0 -32 l16 0 l15 0 l0 -47 l0 -47 l16 0 l16 0 l0 -46 l0 -47 l15 0 l16 0 l0 47 l0 46 l16 0 l15 0 l0 47 l0 47 l16 0 l16 0 l0 32 l0 31 l15 0 l16 0 l0 47 l0 46 l47 0 l46 0 l0 -46 l0 -47 l16 0 l16 0 l0 -31 l0 -32 l15 0 l16 0 l0 -47 l0 -47 l16 0 l15 0 l0 -46 l0 -47 l16 0 l16 0 l0 -31 l0 -32 l15 0 l16 0 l0 -47 l0 -47 l-47 0 l-47 0 l0 47 l0 47 l-16 0 l-15 0 l0 32 l0 31 l-16 0 l-16 0 l0 47 l0 46 l-15 0 l-16 0 l0 47 l0 47 l-15 0 l-16 0 l0 -47 l0 -47 l-16 0 l-15 0 l0 -46 l0 -47 l-16 0 l-15 0 l0 -31 l0 -32 l-16 0 l-16 0 l0 -47 l0 -47 l-47 0 l-47 0 l0 47 l0 47 l-15 0 l-16 0 l0 32 l0 31 l-15 0 l-16 0 l0 47 l0 46 l-16 0 l-15 0 l0 47 l0 47 l-16 0 l-15 0 l0 -47 l0 -47 l-16 0 l-16 0 l0 -46 l0 -47 l-15 0 l-16 0 l0 -31 l0 -32 l-16 0 l-15 0 l0 -47 l0 -47 l-47 0 l-47 0 Z"></path></symbol><symbol id="x" viewBox="0 -232 1000 1000"><path d="M0 -12 l0 32 l0 31 l16 0 l15 0 l0 16 l0 15 l16 0 l15 0 l0 16 l0 16 l16 0 l16 0 l0 31 l0 31 l15 0 l16 0 l0 16 l0 15 l16 0 l15 0 l0 31 l0 32 l-15 0 l-16 0 l0 15 l0 16 l-16 0 l-15 0 l0 31 l0 32 l-16 0 l-16 0 l0 15 l0 16 l-15 0 l-16 0 l0 15 l0 16 l-15 0 l-16 0 l0 31 l0 31 l47 0 l47 0 l0 -15 l0 -16 l15 0 l16 0 l0 -15 l0 -16 l16 0 l15 0 l0 -16 l0 -15 l16 0 l16 0 l0 -31 l0 -32 l15 0 l16 0 l0 -15 l0 -16 l15 0 l16 0 l0 16 l0 15 l16 0 l15 0 l0 32 l0 31 l16 0 l15 0 l0 15 l0 16 l16 0 l16 0 l0 16 l0 15 l15 0 l16 0 l0 16 l0 15 l47 0 l47 0 l0 -31 l0 -31 l-16 0 l-15 0 l0 -16 l0 -15 l-16 0 l-16 0 l0 -16 l0 -15 l-15 0 l-16 0 l0 -32 l0 -31 l-16 0 l-15 0 l0 -16 l0 -15 l-16 0 l-16 0 l0 -32 l0 -31 l16 0 l16 0 l0 -15 l0 -16 l15 0 l16 0 l0 -31 l0 -31 l16 0 l15 0 l0 -16 l0 -16 l16 0 l16 0 l0 -15 l0 -16 l15 0 l16 0 l0 -31 l0 -32 l-47 0 l-47 0 l0 16 l0 16 l-16 0 l-15 0 l0 15 l0 16 l-16 0 l-16 0 l0 16 l0 15 l-15 0 l-16 0 l0 32 l0 31 l-15 0 l-16 0 l0 15 l0 16 l-16 0 l-15 0 l0 -16 l0 -15 l-16 0 l-15 0 l0 -31 l0 -32 l-16 0 l-16 0 l0 -15 l0 -16 l-15 0 l-16 0 l0 -16 l0 -15 l-16 0 l-15 0 l0 -16 l0 -16 l-47 0 l-47 0 Z"></path></symbol><symbol id="y" viewBox="0 -232 1000 1000"><path d="M0 -231 l0 47 l0 47 l16 0 l15 0 l0 32 l0 31 l16 0 l15 0 l0 31 l0 31 l16 0 l16 0 l0 31 l0 32 l15 0 l16 0 l0 31 l0 31 l16 0 l15 0 l0 32 l0 31 l16 0 l16 0 l0 31 l0 31 l-16 0 l-16 0 l0 31 l0 32 l-15 0 l-16 0 l0 31 l0 31 l-16 0 l-15 0 l0 16 l0 16 l-16 0 l-16 0 l0 15 l0 16 l-31 0 l-31 0 l0 31 l0 31 l47 0 l47 0 l0 -15 l0 -16 l31 0 l31 0 l0 -16 l0 -15 l16 0 l16 0 l0 -31 l0 -32 l15 0 l16 0 l0 -31 l0 -31 l15 0 l16 0 l0 -32 l0 -31 l16 0 l15 0 l0 -31 l0 -31 l16 0 l15 0 l0 -31 l0 -32 l16 0 l16 0 l0 -31 l0 -31 l15 0 l16 0 l0 -32 l0 -31 l16 0 l15 0 l0 -31 l0 -31 l16 0 l16 0 l0 -31 l0 -32 l15 0 l16 0 l0 -47 l0 -47 l-47 0 l-47 0 l0 47 l0 47 l-16 0 l-15 0 l0 32 l0 31 l-16 0 l-16 0 l0 31 l0 31 l-15 0 l-16 0 l0 31 l0 32 l-15 0 l-16 0 l0 31 l0 31 l-16 0 l-15 0 l0 -31 l0 -31 l-16 0 l-15 0 l0 -32 l0 -31 l-16 0 l-16 0 l0 -31 l0 -31 l-15 0 l-16 0 l0 -31 l0 -32 l-16 0 l-15 0 l0 -47 l0 -47 l-47 0 l-47 0 Z"></path></symbol><symbol id="z" viewBox="0 -232 1000 1000"><path d="M31 -12 l0 47 l0 47 l141 0 l140 0 l0 16 l0 16 l-15 0 l-16 0 l0 15 l0 16 l-15 0 l-16 0 l0 15 l0 16 l-16 0 l-15 0 l0 16 l0 15 l-16 0 l-15 0 l0 31 l0 32 l-16 0 l-16 0 l0 15 l0 16 l-15 0 l-16 0 l0 16 l0 15 l-16 0 l-15 0 l0 16 l0 16 l-16 0 l-16 0 l0 15 l0 16 l-15 0 l-16 0 l0 47 l0 46 l219 0 l219 0 l0 -46 l0 -47 l-141 0 l-140 0 l0 -16 l0 -15 l15 0 l16 0 l0 -16 l0 -16 l15 0 l16 0 l0 -15 l0 -16 l16 0 l15 0 l0 -31 l0 -32 l16 0 l15 0 l0 -15 l0 -16 l16 0 l16 0 l0 -15 l0 -16 l15 0 l16 0 l0 -16 l0 -15 l16 0 l15 0 l0 -16 l0 -15 l16 0 l16 0 l0 -63 l0 -63 l-204 0 l-203 0 Z"></path></symbol><symbol id="braceleft" viewBox="0 -232 1000 1000"><path d="M219 -44 l0 16 l0 16 l-31 0 l-32 0 l0 31 l0 31 l-15 0 l-16 0 l0 110 l0 109 l-16 0 l-15 0 l0 16 l0 15 l-16 0 l-16 0 l0 16 l0 16 l-15 0 l-16 0 l0 15 l0 16 l16 0 l15 0 l0 15 l0 16 l16 0 l16 0 l0 16 l0 15 l15 0 l16 0 l0 110 l0 109 l16 0 l15 0 l0 31 l0 31 l32 0 l31 0 l0 16 l0 16 l62 0 l63 0 l0 -32 l0 -31 l-32 0 l-31 0 l0 -15 l0 -16 l-15 0 l-16 0 l0 -16 l0 -15 l-16 0 l-15 0 l0 -78 l0 -79 l-16 0 l-15 0 l0 -31 l0 -31 l-16 0 l-16 0 l0 -16 l0 -15 l-15 0 l-16 0 l0 -16 l0 -15 l16 0 l15 0 l0 -16 l0 -16 l16 0 l16 0 l0 -31 l0 -31 l15 0 l16 0 l0 -78 l0 -78 l15 0 l16 0 l0 -16 l0 -16 l16 0 l15 0 l0 -15 l0 -16 l31 0 l32 0 l0 -31 l0 -32 l-63 0 l-62 0 Z"></path></symbol><symbol id="bar" viewBox="0 -232 1000 1000"><path d="M62 -12 l0 359 l0 359 l47 0 l47 0 l0 -359 l0 -359 l-47 0 l-47 0 Z"></path></symbol><symbol id="braceright" viewBox="0 -232 1000 1000"><path d="M31 -44 l0 32 l0 31 l31 0 l32 0 l0 16 l0 15 l15 0 l16 0 l0 16 l0 16 l16 0 l15 0 l0 93 l0 94 l16 0 l16 0 l0 31 l0 32 l15 0 l16 0 l0 31 l0 31 l-16 0 l-15 0 l0 31 l0 31 l-16 0 l-16 0 l0 79 l0 78 l-15 0 l-16 0 l0 15 l0 16 l-16 0 l-15 0 l0 16 l0 15 l-32 0 l-31 0 l0 31 l0 32 l63 0 l62 0 l0 -16 l0 -16 l32 0 l31 0 l0 -31 l0 -31 l15 0 l16 0 l0 -109 l0 -110 l16 0 l15 0 l0 -15 l0 -16 l16 0 l15 0 l0 -16 l0 -15 l16 0 l16 0 l0 -16 l0 -15 l-16 0 l-16 0 l0 -16 l0 -16 l-15 0 l-16 0 l0 -15 l0 -16 l-15 0 l-16 0 l0 -109 l0 -110 l-16 0 l-15 0 l0 -31 l0 -31 l-31 0 l-32 0 l0 -16 l0 -16 l-62 0 l-63 0 Z"></path></symbol><symbol id="asciitilde" viewBox="0 -232 1000 1000"><path d="M125 550 l0 15 l0 16 l-16 0 l-15 0 l0 16 l0 15 l-16 0 l-16 0 l0 47 l0 47 l47 0 l47 0 l0 -31 l0 -31 l16 0 l16 0 l0 -16 l0 -16 l31 0 l31 0 l0 16 l0 16 l31 0 l31 0 l0 15 l0 16 l16 0 l16 0 l0 15 l0 16 l78 0 l78 0 l0 -16 l0 -15 l16 0 l15 0 l0 -16 l0 -15 l16 0 l15 0 l0 -47 l0 -47 l-46 0 l-47 0 l0 31 l0 31 l-16 0 l-15 0 l0 16 l0 16 l-32 0 l-31 0 l0 -16 l0 -16 l-31 0 l-32 0 l0 -15 l0 -16 l-15 0 l-16 0 l0 -16 l0 -15 l-78 0 l-78 0 Z"></path></symbol><symbol id="uni007F" viewBox="0 -232 1000 1000"><path d="M94 -12 l0 359 l0 359 l78 0 l78 0 l0 -359 l0 -359 l-78 0 l-78 0 Z"></path></symbol><symbol id="uni00A0" viewBox="0 -232 1000 1000"><path d=""></path></symbol><symbol id="exclamdown" viewBox="0 -232 1000 1000"><path d=""></path></symbol><symbol id="cent" viewBox="0 -232 1000 1000"><path d=""></path></symbol><symbol id="sterling" viewBox="0 -232 1000 1000"><path d=""></path></symbol><symbol id="currency" viewBox="0 -232 1000 1000"><path d=""></path></symbol><symbol id="yen" viewBox="0 -232 1000 1000"><path d=""></path></symbol><symbol id="brokenbar" viewBox="0 -232 1000 1000"><path d=""></path></symbol><symbol id="section" viewBox="0 -232 1000 1000"><path d=""></path></symbol><symbol id="dieresis" viewBox="0 -232 1000 1000"><path d=""></path></symbol><symbol id="copyright" viewBox="0 -232 1000 1000"><path d=""></path></symbol><symbol id="ordfeminine" viewBox="0 -232 1000 1000"><path d=""></path></symbol><symbol id="guillemotleft" viewBox="0 -232 1000 1000"><path d=""></path></symbol><symbol id="logicalnot" viewBox="0 -232 1000 1000"><path d=""></path></symbol><symbol id="uni00AD" viewBox="0 -232 1000 1000"><path d=""></path></symbol><symbol id="registered" viewBox="0 -232 1000 1000"><path d=""></path></symbol><symbol id="macron" viewBox="0 -232 1000 1000"><path d=""></path></symbol><symbol id="degree" viewBox="0 -232 1000 1000"><path d=""></path></symbol><symbol id="plusminus" viewBox="0 -232 1000 1000"><path d=""></path></symbol><symbol id="uni00B2" viewBox="0 -232 1000 1000"><path d=""></path></symbol><symbol id="uni00B3" viewBox="0 -232 1000 1000"><path d=""></path></symbol><symbol id="acute" viewBox="0 -232 1000 1000"><path d=""></path></symbol><symbol id="mu" viewBox="0 -232 1000 1000"><path d=""></path></symbol><symbol id="paragraph" viewBox="0 -232 1000 1000"><path d=""></path></symbol><symbol id="periodcentered" viewBox="0 -232 1000 1000"><path d=""></path></symbol><symbol id="cedilla" viewBox="0 -232 1000 1000"><path d=""></path></symbol><symbol id="uni00B9" viewBox="0 -232 1000 1000"><path d=""></path></symbol><symbol id="ordmasculine" viewBox="0 -232 1000 1000"><path d=""></path></symbol><symbol id="guillemotright" viewBox="0 -232 1000 1000"><path d=""></path></symbol><symbol id="onequarter" viewBox="0 -232 1000 1000"><path d=""></path></symbol><symbol id="onehalf" viewBox="0 -232 1000 1000"><path d=""></path></symbol><symbol id="threequarters" viewBox="0 -232 1000 1000"><path d=""></path></symbol><symbol id="questiondown" viewBox="0 -232 1000 1000"><path d=""></path></symbol><symbol id="Agrave" viewBox="0 -232 1000 1000"><path d=""></path></symbol><symbol id="Aacute" viewBox="0 -232 1000 1000"><path d=""></path></symbol><symbol id="Acircumflex" viewBox="0 -232 1000 1000"><path d=""></path></symbol><symbol id="Atilde" viewBox="0 -232 1000 1000"><path d=""></path></symbol><symbol id="Adieresis" viewBox="0 -232 1000 1000"><path d=""></path></symbol><symbol id="Aring" viewBox="0 -232 1000 1000"><path d=""></path></symbol><symbol id="AE" viewBox="0 -232 1000 1000"><path d=""></path></symbol><symbol id="Ccedilla" viewBox="0 -232 1000 1000"><path d=""></path></symbol><symbol id="Egrave" viewBox="0 -232 1000 1000"><path d=""></path></symbol><symbol id="Eacute" viewBox="0 -232 1000 1000"><path d=""></path></symbol><symbol id="Ecircumflex" viewBox="0 -232 1000 1000"><path d=""></path></symbol><symbol id="Edieresis" viewBox="0 -232 1000 1000"><path d=""></path></symbol><symbol id="Igrave" viewBox="0 -232 1000 1000"><path d=""></path></symbol><symbol id="Iacute" viewBox="0 -232 1000 1000"><path d=""></path></symbol><symbol id="Icircumflex" viewBox="0 -232 1000 1000"><path d=""></path></symbol><symbol id="Idieresis" viewBox="0 -232 1000 1000"><path d=""></path></symbol><symbol id="Eth" viewBox="0 -232 1000 1000"><path d=""></path></symbol><symbol id="Ntilde" viewBox="0 -232 1000 1000"><path d=""></path></symbol><symbol id="Ograve" viewBox="0 -232 1000 1000"><path d=""></path></symbol><symbol id="Oacute" viewBox="0 -232 1000 1000"><path d=""></path></symbol><symbol id="Ocircumflex" viewBox="0 -232 1000 1000"><path d=""></path></symbol><symbol id="Otilde" viewBox="0 -232 1000 1000"><path d=""></path></symbol><symbol id="Odieresis" viewBox="0 -232 1000 1000"><path d=""></path></symbol><symbol id="multiply" viewBox="0 -232 1000 1000"><path d=""></path></symbol><symbol id="Oslash" viewBox="0 -232 1000 1000"><path d=""></path></symbol><symbol id="Ugrave" viewBox="0 -232 1000 1000"><path d=""></path></symbol><symbol id="Uacute" viewBox="0 -232 1000 1000"><path d=""></path></symbol><symbol id="Ucircumflex" viewBox="0 -232 1000 1000"><path d=""></path></symbol><symbol id="Udieresis" viewBox="0 -232 1000 1000"><path d=""></path></symbol><symbol id="Yacute" viewBox="0 -232 1000 1000"><path d=""></path></symbol><symbol id="Thorn" viewBox="0 -232 1000 1000"><path d=""></path></symbol><symbol id="germandbls" viewBox="0 -232 1000 1000"><path d=""></path></symbol><symbol id="agrave" viewBox="0 -232 1000 1000"><path d=""></path></symbol><symbol id="aacute" viewBox="0 -232 1000 1000"><path d=""></path></symbol><symbol id="acircumflex" viewBox="0 -232 1000 1000"><path d=""></path></symbol><symbol id="atilde" viewBox="0 -232 1000 1000"><path d=""></path></symbol><symbol id="adieresis" viewBox="0 -232 1000 1000"><path d=""></path></symbol><symbol id="aring" viewBox="0 -232 1000 1000"><path d=""></path></symbol><symbol id="ae" viewBox="0 -232 1000 1000"><path d=""></path></symbol><symbol id="ccedilla" viewBox="0 -232 1000 1000"><path d=""></path></symbol><symbol id="egrave" viewBox="0 -232 1000 1000"><path d=""></path></symbol><symbol id="eacute" viewBox="0 -232 1000 1000"><path d=""></path></symbol><symbol id="ecircumflex" viewBox="0 -232 1000 1000"><path d=""></path></symbol><symbol id="edieresis" viewBox="0 -232 1000 1000"><path d=""></path></symbol><symbol id="igrave" viewBox="0 -232 1000 1000"><path d=""></path></symbol><symbol id="iacute" viewBox="0 -232 1000 1000"><path d=""></path></symbol><symbol id="icircumflex" viewBox="0 -232 1000 1000"><path d=""></path></symbol><symbol id="idieresis" viewBox="0 -232 1000 1000"><path d=""></path></symbol><symbol id="eth" viewBox="0 -232 1000 1000"><path d=""></path></symbol><symbol id="ntilde" viewBox="0 -232 1000 1000"><path d=""></path></symbol><symbol id="ograve" viewBox="0 -232 1000 1000"><path d=""></path></symbol><symbol id="oacute" viewBox="0 -232 1000 1000"><path d=""></path></symbol><symbol id="ocircumflex" viewBox="0 -232 1000 1000"><path d=""></path></symbol><symbol id="otilde" viewBox="0 -232 1000 1000"><path d=""></path></symbol><symbol id="odieresis" viewBox="0 -232 1000 1000"><path d=""></path></symbol><symbol id="divide" viewBox="0 -232 1000 1000"><path d=""></path></symbol><symbol id="oslash" viewBox="0 -232 1000 1000"><path d=""></path></symbol><symbol id="ugrave" viewBox="0 -232 1000 1000"><path d=""></path></symbol><symbol id="uacute" viewBox="0 -232 1000 1000"><path d=""></path></symbol><symbol id="ucircumflex" viewBox="0 -232 1000 1000"><path d=""></path></symbol><symbol id="udieresis" viewBox="0 -232 1000 1000"><path d=""></path></symbol><symbol id="yacute" viewBox="0 -232 1000 1000"><path d=""></path></symbol><symbol id="thorn" viewBox="0 -232 1000 1000"><path d=""></path></symbol><symbol id="ydieresis" viewBox="0 -232 1000 1000"><path d=""></path></symbol><symbol id="Euro" viewBox="0 -232 1000 1000"><path d=""></path></symbol><symbol id="NameMe.129" viewBox="0 -232 1000 1000"><path d=""></path></symbol><symbol id="quotesinglbase" viewBox="0 -232 1000 1000"><path d=""></path></symbol><symbol id="florin" viewBox="0 -232 1000 1000"><path d=""></path></symbol><symbol id="quotedblbase" viewBox="0 -232 1000 1000"><path d=""></path></symbol><symbol id="ellipsis" viewBox="0 -232 1000 1000"><path d=""></path></symbol><symbol id="dagger" viewBox="0 -232 1000 1000"><path d=""></path></symbol><symbol id="daggerdbl" viewBox="0 -232 1000 1000"><path d=""></path></symbol><symbol id="circumflex" viewBox="0 -232 1000 1000"><path d=""></path></symbol><symbol id="perthousand" viewBox="0 -232 1000 1000"><path d=""></path></symbol><symbol id="Scaron" viewBox="0 -232 1000 1000"><path d=""></path></symbol><symbol id="guilsinglleft" viewBox="0 -232 1000 1000"><path d=""></path></symbol><symbol id="OE" viewBox="0 -232 1000 1000"><path d=""></path></symbol><symbol id="NameMe.141" viewBox="0 -232 1000 1000"><path d=""></path></symbol><symbol id="Zcaron" viewBox="0 -232 1000 1000"><path d=""></path></symbol><symbol id="NameMe.143" viewBox="0 -232 1000 1000"><path d=""></path></symbol><symbol id="NameMe.144" viewBox="0 -232 1000 1000"><path d=""></path></symbol><symbol id="quoteleft" viewBox="0 -232 1000 1000"><path d=""></path></symbol><symbol id="quoteright" viewBox="0 -232 1000 1000"><path d=""></path></symbol><symbol id="quotedblleft" viewBox="0 -232 1000 1000"><path d=""></path></symbol><symbol id="quotedblright" viewBox="0 -232 1000 1000"><path d=""></path></symbol><symbol id="endash" viewBox="0 -232 1000 1000"><path d=""></path></symbol><symbol id="emdash" viewBox="0 -232 1000 1000"><path d=""></path></symbol><symbol id="tilde" viewBox="0 -232 1000 1000"><path d=""></path></symbol><symbol id="trademark" viewBox="0 -232 1000 1000"><path d=""></path></symbol><symbol id="scaron" viewBox="0 -232 1000 1000"><path d=""></path></symbol><symbol id="guilsinglright" viewBox="0 -232 1000 1000"><path d=""></path></symbol><symbol id="oe" viewBox="0 -232 1000 1000"><path d=""></path></symbol><symbol id="NameMe.157" viewBox="0 -232 1000 1000"><path d=""></path></symbol><symbol id="zcaron" viewBox="0 -232 1000 1000"><path d=""></path></symbol><symbol id="Ydieresis" viewBox="0 -232 1000 1000"><path d=""></path></symbol></defs></svg>